<svg width="50" height="50" viewBox="0 0 50 50" fill="none" xmlns="http://www.w3.org/2000/svg">
<g id="Icon/Keranjang Footer">
<path id="Vector" d="M45.9145 18.1646V24.675C45.9145 25.574 45.1859 26.3026 44.2869 26.3026H43.2165L42.5308 32.4052C42.4374 33.2368 41.7329 33.851 40.9153 33.8513C40.8546 33.8513 40.7935 33.8478 40.7316 33.8408C39.8383 33.7407 39.1955 32.9348 39.296 32.0418L40.1441 24.4935C40.2366 23.6702 40.9328 23.0474 41.7615 23.0474H42.6596V19.7922H7.50326V23.0474H35.254C36.153 23.0474 36.8816 23.7763 36.8816 24.675C36.8816 25.574 36.153 26.3026 35.254 26.3026H10.2518L11.859 39.711C12.0548 41.3459 13.4443 42.5787 15.091 42.5787H35.2021C36.8609 42.5787 38.2517 41.3354 38.437 39.6868C38.5371 38.7935 39.3427 38.1511 40.236 38.2512C41.1292 38.3517 41.772 39.1572 41.6719 40.0505C41.3012 43.3473 38.52 45.8339 35.2021 45.8339H15.091C11.7977 45.8339 9.01865 43.368 8.62669 40.0982L6.97333 26.3026H5.87565C4.97666 26.3026 4.24805 25.574 4.24805 24.675V18.1646C4.24805 17.2656 4.97666 16.537 5.87565 16.537H11.6486L20.2491 4.83127C20.7813 4.10711 21.7998 3.95103 22.5243 4.4835C23.2488 5.01565 23.4045 6.03417 22.8724 6.75865L15.688 16.537H34.5349L27.3502 6.75865C26.8181 6.03417 26.9738 5.01565 27.6983 4.4835C28.4228 3.95103 29.4413 4.10679 29.9738 4.83127L38.574 16.537H44.2869C45.1859 16.537 45.9145 17.2659 45.9145 18.1646ZM23.4538 31.1854V37.6959C23.4538 38.5949 24.1824 39.3235 25.0814 39.3235C25.9801 39.3235 26.709 38.5949 26.709 37.6959V31.1854C26.709 30.2864 25.9801 29.5578 25.0814 29.5578C24.1824 29.5578 23.4538 30.2864 23.4538 31.1854ZM29.9642 31.1854V37.6959C29.9642 38.5949 30.6928 39.3235 31.5918 39.3235C32.4905 39.3235 33.2194 38.5949 33.2194 37.6959V31.1854C33.2194 30.2864 32.4905 29.5578 31.5918 29.5578C30.6928 29.5578 29.9642 30.2864 29.9642 31.1854ZM16.9434 31.1854V37.6959C16.9434 38.5949 17.672 39.3235 18.571 39.3235C19.4697 39.3235 20.1986 38.5949 20.1986 37.6959V31.1854C20.1986 30.2864 19.4697 29.5578 18.571 29.5578C17.672 29.5578 16.9434 30.2864 16.9434 31.1854Z" fill="white"/>
</g>
</svg>
