<svg width="36" height="36" viewBox="0 0 36 36" fill="none" xmlns="http://www.w3.org/2000/svg">
<path d="M21.351 5.00049C16.0305 5.00049 11.7021 9.32896 11.7021 14.6495C11.7021 16.4849 12.2174 18.2022 13.1107 19.6646C8.0467 23.6448 7.48722 24.2041 7.29855 24.3927L5.89103 25.8003C4.70299 26.9883 4.70299 28.9214 5.89103 30.1095C6.48505 30.7035 7.26534 31.0005 8.04559 31.0005C8.82583 31.0005 9.60612 30.7035 10.2001 30.1095L11.6077 28.702C11.7953 28.5144 12.3561 27.9533 16.3127 22.8753C17.7801 23.7774 19.5058 24.2984 21.351 24.2984C22.8008 24.2984 24.195 23.9845 25.4949 23.3655C26.0014 23.1243 26.2164 22.5182 25.9752 22.0118C25.734 21.5053 25.1279 21.2901 24.6215 21.5315C23.5966 22.0196 22.4962 22.2671 21.351 22.2671C17.1507 22.2671 13.7334 18.8498 13.7334 14.6495C13.7334 10.4491 17.1507 7.03185 21.351 7.03185C25.5513 7.03185 28.9686 10.4491 28.9686 14.6495C28.9686 16.0252 28.5982 17.3731 27.8975 18.5471C27.61 19.0288 27.7674 19.6523 28.2491 19.9398C28.7308 20.2273 29.3543 20.0699 29.6418 19.5882C30.5304 18.0995 31 16.3917 31 14.6495C30.9999 9.32896 26.6714 5.00049 21.351 5.00049ZM10.1713 27.2655L8.76382 28.6731C8.36781 29.0691 7.72346 29.0691 7.32745 28.6731C6.93144 28.277 6.93144 27.6327 7.32745 27.2367L8.73498 25.8292C8.98666 25.5775 10.0574 24.6485 14.3456 21.2777C14.4616 21.4003 14.5807 21.52 14.7029 21.6364C11.3432 25.9481 10.4208 27.0161 10.1713 27.2655ZM26.4776 12.4274C26.7009 12.942 26.4647 13.5402 25.9502 13.7635C25.8185 13.8207 25.6813 13.8477 25.5464 13.8477C25.1539 13.8477 24.7803 13.6189 24.6141 13.236C24.0496 11.9351 22.7688 11.0946 21.351 11.0946C20.7901 11.0946 20.3353 10.6399 20.3353 10.0789C20.3353 9.51793 20.7901 9.06321 21.351 9.06321C23.5785 9.06321 25.5908 10.3837 26.4776 12.4274Z" fill="white"/>
</svg>
