<svg width="19" height="20" viewBox="0 0 19 20" fill="none" xmlns="http://www.w3.org/2000/svg">
<g id="shopping-cart 1" clip-path="url(#clip0_5917_17629)">
<path id="Vector" d="M18.6157 6.9243V9.85399C18.6157 10.2585 18.293 10.5864 17.8949 10.5864H17.4208L17.1171 13.3326C17.0757 13.7068 16.7637 13.9832 16.4015 13.9833C16.3747 13.9833 16.3476 13.9817 16.3202 13.9786C15.9245 13.9335 15.6398 13.5709 15.6843 13.1691L16.06 9.77231C16.1009 9.40181 16.4093 9.12157 16.7764 9.12157H17.1741V7.65672H1.60291V9.12157H13.8941C14.2922 9.12157 14.615 9.44959 14.615 9.85399C14.615 10.2585 14.2922 10.5864 13.8941 10.5864H2.82026L3.53213 16.6202C3.61886 17.3559 4.2343 17.9106 4.96363 17.9106H13.8711C14.6058 17.9106 15.2218 17.3512 15.3039 16.6093C15.3482 16.2073 15.705 15.9182 16.1007 15.9633C16.4963 16.0085 16.781 16.371 16.7366 16.773C16.5725 18.2565 15.3406 19.3755 13.8711 19.3755H4.96363C3.50496 19.3755 2.2741 18.2658 2.10049 16.7944L1.3682 10.5864H0.882022C0.483843 10.5864 0.161133 10.2585 0.161133 9.85399V6.9243C0.161133 6.51975 0.483843 6.19188 0.882022 6.19188H3.43892L7.24823 0.924303C7.48393 0.598433 7.93505 0.528195 8.25593 0.767805C8.57681 1.00727 8.6458 1.46561 8.4101 1.79162L5.22805 6.19188H13.5756L10.3934 1.79162C10.1577 1.46561 10.2267 1.00727 10.5476 0.767805C10.8684 0.528195 11.3196 0.59829 11.5554 0.924303L15.3646 6.19188H17.8949C18.293 6.19188 18.6157 6.5199 18.6157 6.9243ZM8.66762 12.7837V15.7134C8.66762 16.1179 8.99033 16.4458 9.38851 16.4458C9.78655 16.4458 10.1094 16.1179 10.1094 15.7134V12.7837C10.1094 12.3791 9.78655 12.0513 9.38851 12.0513C8.99033 12.0513 8.66762 12.3791 8.66762 12.7837ZM11.5512 12.7837V15.7134C11.5512 16.1179 11.8739 16.4458 12.2721 16.4458C12.6701 16.4458 12.993 16.1179 12.993 15.7134V12.7837C12.993 12.3791 12.6701 12.0513 12.2721 12.0513C11.8739 12.0513 11.5512 12.3791 11.5512 12.7837ZM5.78407 12.7837V15.7134C5.78407 16.1179 6.10678 16.4458 6.50495 16.4458C6.90299 16.4458 7.22584 16.1179 7.22584 15.7134V12.7837C7.22584 12.3791 6.90299 12.0513 6.50495 12.0513C6.10678 12.0513 5.78407 12.3791 5.78407 12.7837Z" fill="white"/>
</g>
<defs>
<clipPath id="clip0_5917_17629">
<rect width="18.4547" height="18.75" fill="white" transform="translate(0.125 0.625488)"/>
</clipPath>
</defs>
</svg>
