<svg width="482" height="347" viewBox="0 0 482 347" fill="none" xmlns="http://www.w3.org/2000/svg">
<g clip-path="url(#clip0_4132_130821)">
<path d="M478.759 268.681C472.723 283.347 456.521 296.317 434.028 307.28C385.799 330.782 308.616 345.009 240.554 346.748C239.303 346.779 238.064 346.804 236.825 346.829C228.421 346.985 219.64 346.96 210.592 346.748C153.327 345.378 85.9568 336.348 43.4241 317.649C26.1535 310.057 12.9759 300.87 6.23528 289.957C5.62801 288.963 5.05719 287.949 4.54708 286.918C-4.96266 267.812 2.89533 242.847 32.2261 230.202C44.0678 225.099 58.8486 222.234 73.7872 220.74C85.7746 219.533 97.8592 219.207 108.596 219.308C125.137 219.458 138.461 220.596 143.258 221.046C149.464 221.634 155.513 222.403 161.731 223.179C165.278 223.616 168.885 224.06 172.601 224.473C181.346 225.443 190.698 226.224 201.422 226.387C207.737 226.481 214.539 226.362 221.972 225.93C224.814 225.761 234.736 225.149 252.906 222.547C306.563 214.855 317.846 206.181 348.027 202.235C369.33 199.445 398.09 199.258 423.255 204.223C432.303 206.006 440.878 208.457 448.457 211.69C449.61 212.178 450.728 212.685 451.833 213.21C475.176 224.336 480.799 240.427 481.249 252.428C481.577 261.377 479.014 268.056 478.759 268.681Z" fill="#E1E1E1"/>
<path d="M368.881 6.17236C351.06 18.3372 324.067 31.7706 297.817 41.5095C303.421 55.7233 318.897 72.7797 331.073 74.3198C325.102 61.9217 316.437 33.3731 320.058 31.6042L320.391 32.285C317.878 33.5127 324.709 59.6089 331.869 74.3442C339.563 73.579 346.234 72.6303 351.777 71.4907C347.42 62.4281 338.449 22.8711 341.481 21.3898L341.874 21.8893C339.817 22.8944 347.352 60.7157 352.487 71.338C355.465 70.7095 358.1 70.0208 360.376 69.2881C360.966 69.0841 367.487 66.8172 368.087 66.6168L362.404 69.3939C362.397 69.397 362.391 69.4001 362.384 69.4032C361.807 69.6178 361.201 69.8212 360.579 70.024C298.524 91.3701 275.968 111.525 275.739 111.73L275.6 111.814C265.987 110.675 255.734 108.415 245.266 105.332C226.73 111.588 210.426 126.504 209.503 138.045C210.611 139.351 212.091 141.015 213.215 142.304L212.569 142.636C207.626 136.964 202.59 130.957 197.827 124.9C184.377 126.834 160.152 138.341 151.122 145.005C151.427 154.183 152.269 163.303 153.624 171.42L153.194 171.647C131.036 147.237 93.7065 137.527 78.8392 134.586L78.5997 134.096C81.8676 130.129 85.7884 125.894 89.9686 121.693C92.6538 113.372 90.9465 99.287 85.3886 83.9965C80.0399 69.2785 72.1422 56.2276 64.7617 49.9156C53.6276 45.2604 41.7739 39.4051 28.7749 32.1527L28.3491 31.2812C49.8649 38.8591 77.8456 32.5336 101.972 13.9394C92.6272 -0.436911 84.7834 -15.1587 77.8988 -28.848L78.5285 -29.1641C85.4363 -15.4271 93.3164 -0.647129 102.707 13.7744C109.188 18.3248 121.684 20.7289 136.158 20.2014C151.341 19.6482 165.748 15.9991 175.689 10.189C175.689 10.189 175.791 10.1395 175.951 10.1959C176.106 10.2553 176.197 10.3624 176.197 10.3624C183.609 25.5315 212.176 26.856 239.873 13.3232C239.873 13.3232 239.958 13.2564 240.035 13.2694C240.192 13.3022 240.257 13.3716 240.257 13.3716C260.142 30.1124 311.381 33.4063 368.541 5.4779L368.881 6.17236ZM244.803 103.07C246.237 96.938 262.286 85.8495 279.429 77.3048C267.891 77.3423 257.6 77.1581 250.278 76.966C245.982 76.8553 241.689 76.7179 237.424 76.5583C226.833 81.7586 220.654 90.9847 223.564 97.2292C230.692 99.9115 237.725 102.32 244.618 104.375C241.297 97.2095 243.511 82.3723 245.591 76.4393L246.267 76.7328C244.345 82.2011 241.959 96.4138 244.803 103.07ZM121.956 41.2164C116.58 48.971 103.78 57.7552 93.4265 59.1113C100.268 60.9977 107.07 62.5152 113.991 63.7468L113.98 63.7097C119.964 62.5572 128.989 56.4609 131.236 50.9017C128.254 47.8802 125.383 44.7795 122.618 41.5928C122.389 41.4771 122.176 41.3452 121.956 41.2164ZM151.203 114.604C146.274 104.564 136.485 97.9273 122.108 94.8654C117.587 98.3223 113.246 101.793 109.106 105.258C122.017 106.666 145.124 117.422 150.435 127.697C150.593 123.352 150.847 118.978 151.203 114.604ZM122.873 94.2808C136.65 97.3493 146.211 103.743 151.319 113.299C151.789 107.891 152.416 102.499 153.195 97.1764C149.84 92.0433 144.627 88.1133 136.343 84.4609C131.716 87.6999 127.211 90.9804 122.873 94.2808ZM220.92 62.8378C214.532 64.0446 208.233 65.098 202.069 65.9762C203.685 70.2802 206.364 73.1463 210.047 74.4754C217.769 74.9535 226.099 75.3786 234.859 75.7202C228.666 73.1712 223.345 67.6241 220.92 62.8378ZM194.45 85.1408C192.617 81.0688 193.379 77.1714 196.562 74.2668C194.191 74.0842 191.887 73.8941 189.67 73.7041C189.663 73.7072 189.66 73.7004 189.654 73.7035C187.663 73.529 185.75 73.3509 183.906 73.1721C180.935 74.6658 180.464 77.2488 181.286 79.0908C185.674 81.1553 190.064 83.1765 194.45 85.1408ZM201.352 66.0818C195.248 66.9391 189.287 67.6417 183.518 68.158C184.644 70.062 187.201 72.566 189.742 72.9689L189.739 72.9788C195.275 73.4619 201.408 73.9315 208.02 74.353C205.036 72.7072 202.748 69.8864 201.352 66.0818ZM149.911 74.441C151.11 73.6697 152.312 72.9051 153.524 72.1442C153.765 70.8713 153.35 69.8934 152.864 68.8994C151.437 68.8037 150.017 68.7048 148.619 68.6036C148.662 68.6921 148.705 68.7806 148.752 68.8759C149.25 69.847 150.224 71.7918 149.911 74.441ZM182.743 68.2246C179.902 68.4745 177.11 68.6828 174.366 68.843C174.92 69.7361 176.069 71.1735 177.614 71.768C180.502 72.0943 183.687 72.4189 187.127 72.7367C185.156 71.5746 183.512 69.6538 182.743 68.2246ZM176.29 72.3642C173.505 72.0385 170.984 71.7098 168.777 71.38C168.325 71.6595 168.181 72.3118 168.426 72.9258C169.971 73.6806 171.519 74.4255 173.067 75.1704C173.397 74.2416 174.9 73.1615 176.29 72.3642ZM173.581 68.8892C171.481 69.0043 169.419 69.1009 167.382 69.1684C167.819 69.9501 168.215 70.4063 168.416 70.5778C170.576 70.9058 173.067 71.2401 175.872 71.5732C174.821 70.7541 174.008 69.6839 173.581 68.8892ZM158.838 69.7334C157.648 70.4584 156.464 71.197 155.28 71.9356C156.436 72.0708 157.187 72.7412 157.8 73.7235C158.132 72.3807 158.477 71.0484 158.838 69.7334ZM162.036 72.3793C162.191 71.9412 162.495 71.4722 162.998 71.0912C162.134 70.6701 161.273 70.2391 160.408 69.818C160.952 70.6741 161.496 71.5301 162.036 72.3793ZM167.883 71.2516C166.133 70.9763 164.598 70.7061 163.305 70.4352C164.737 71.1356 166.169 71.8359 167.601 72.5363C167.557 72.0603 167.66 71.6136 167.883 71.2516ZM167.346 70.4092C167.021 69.9691 166.753 69.4844 166.594 69.191C164.924 69.2394 163.273 69.2786 161.653 69.2856C163.053 69.6474 164.965 70.0291 167.346 70.4092ZM159.069 68.4568C159.068 67.6052 159.068 66.7537 159.071 65.9089C158.091 66.6321 156.77 67.2017 155.52 67.4668C156.668 67.8589 157.853 68.1823 159.069 68.4568ZM154.097 67.7319C154.036 67.8965 153.959 68.0605 153.863 68.217C154.519 68.2593 155.175 68.3016 155.837 68.3408C155.249 68.1475 154.67 67.9413 154.097 67.7319ZM159.79 66.0806C159.784 66.7749 159.788 67.473 159.792 68.1711C160.44 67.6687 161.095 67.1633 161.737 66.6641C160.99 66.675 160.305 66.478 159.79 66.0806ZM160.537 68.5407C162.112 68.5387 163.721 68.5113 165.356 68.4716C164.499 67.9205 163.724 67.1857 163.253 66.4461C162.353 67.1389 161.45 67.8417 160.537 68.5407ZM163.788 71.4726C162.692 72.0843 162.522 73.0695 162.633 73.3276C163.308 74.3892 163.977 75.4371 164.639 76.4714C164.887 75.4225 165.732 74.1831 167.346 73.2176C166.162 72.6404 164.975 72.0565 163.788 71.4726ZM159.571 69.8054C159.183 71.2262 158.809 72.6575 158.45 74.1062C158.662 73.9775 158.911 73.8303 159.215 73.6819C159.842 73.3757 160.66 73.0937 161.65 73.0823C160.959 72.0034 160.267 70.9078 159.571 69.8054ZM153.983 72.7465C152.771 73.5074 151.562 74.275 150.357 75.0495C152.89 75.7093 154.947 77.3189 156.371 79.7521C156.744 78.0602 157.13 76.3789 157.536 74.7217C156.754 73.1551 155.928 72.3782 153.983 72.7465ZM158.221 69.2252C156.689 69.1387 155.17 69.0461 153.673 68.951C154.047 69.7636 154.354 70.6171 154.307 71.6605C155.601 70.8427 156.905 70.0287 158.221 69.2252ZM152.939 68.1543C153.128 67.9947 153.302 67.741 153.405 67.4712C152.394 67.0711 151.411 66.6154 150.45 66.1404C150.184 66.7846 149.758 67.3891 149.206 67.8951C150.441 67.9834 151.685 68.0753 152.939 68.1543ZM153.917 66.8834C155.538 66.9433 157.847 66.0683 159.084 64.9243C159.088 64.1631 159.099 63.4156 159.113 62.6581C156.632 64.5115 153.798 65.4996 151.54 65.8691C152.314 66.2332 153.113 66.5682 153.917 66.8834ZM159.795 65.0322C160.328 65.978 161.802 66.2191 163.16 65.5642C163.666 65.1732 164.173 64.7822 164.67 64.4042C162.788 64.6747 160.928 64.1581 159.823 63.003C159.807 63.6769 159.801 64.3546 159.795 65.0322ZM163.817 66.0105C164.417 66.9823 165.686 68.0069 166.863 68.4268C168.409 68.3802 169.976 68.3145 171.565 68.2295C169.532 67.3254 167.481 65.6625 166.458 63.9864C165.586 64.657 164.701 65.3338 163.817 66.0105ZM177.619 72.5162C175.119 73.7544 173.828 75.0265 173.715 75.4862C175.937 76.5513 178.155 77.6096 180.377 78.6579C179.868 76.8148 180.387 74.5877 182.629 73.0455C180.885 72.8773 179.213 72.6986 177.619 72.5162ZM168.194 73.6213C165.704 74.8967 165.024 76.857 165.367 77.5917C166.151 78.8111 166.925 80.0101 167.702 81.1991C167.976 79.3698 169.807 77.2607 172.57 75.7421C171.112 75.0375 169.648 74.3359 168.194 73.6213ZM162.138 73.856C160.586 73.712 159.449 74.3856 158.773 74.8C158.536 74.9411 158.366 75.0413 158.207 75.0852C157.816 76.6761 157.448 78.2814 157.09 79.907C157.49 79.6521 158.021 79.3422 158.686 79.0175C160.11 78.3217 162.102 77.6013 164.428 77.4349C163.66 76.2495 162.9 75.0611 162.138 73.856ZM149.502 75.6106C147.764 76.7383 146.041 77.8666 144.326 79.0085C150.518 79.5505 153.429 83.0368 155.075 86.0529C155.417 84.2831 155.767 82.5269 156.142 80.7917C154.706 77.9173 152.413 76.1281 149.502 75.6106ZM148.07 67.8175C148.872 67.3078 149.481 66.5969 149.798 65.8178C148.307 65.0451 146.879 64.1912 145.497 63.2725C144.705 64.9747 142.99 66.4539 141.69 67.3082C143.793 67.487 145.92 67.6535 148.07 67.8175ZM150.321 65.2672C152.72 65.0735 156.236 64.0386 159.123 61.7001C159.15 60.7761 159.177 59.8522 159.213 58.9319C155.784 61.1558 150.249 63.2107 146.755 63.2313C147.919 63.9613 149.104 64.6387 150.321 65.2672ZM159.842 61.855C160.753 63.5268 163.677 64.4089 166.37 63.1014C167.164 62.4945 167.957 61.8876 168.741 61.2938C165.194 62.2173 161.681 61.4793 159.925 59.3604C159.893 60.194 159.867 61.0245 159.842 61.855ZM167.024 63.5577C168.24 65.6287 171.31 67.7554 173.665 68.1144C175.86 67.9863 178.094 67.8229 180.365 67.641C176.443 66.4195 172.668 63.6676 170.891 60.6229C169.612 61.5849 168.325 62.5598 167.024 63.5577ZM173.421 76.1527C169.948 77.9006 167.725 80.7659 168.535 82.4872C169.779 84.3924 171.014 86.2605 172.231 88.0945C172.465 85.1717 176.031 81.5907 180.196 79.3789C177.936 78.3156 175.679 77.2425 173.421 76.1527ZM164.886 78.1473C160.644 78.3392 157.412 80.5674 156.845 80.9794C156.461 82.7443 156.103 84.5302 155.757 86.3267C156.341 85.9654 157.242 85.4328 158.387 84.8731C160.716 83.7351 164.034 82.502 167.586 82.3266C166.694 80.9494 165.795 79.5586 164.886 78.1473ZM143.31 79.6902C141.197 81.1105 139.104 82.5382 137.033 83.9802C144.864 87.4914 149.956 91.2864 153.347 96.1572C153.806 93.133 154.307 90.1304 154.866 87.1668C153.307 84.0238 150.413 79.9138 143.31 79.6902ZM149.097 74.9736C149.657 72.2205 148.667 70.2584 148.122 69.192C147.983 68.9227 147.883 68.7185 147.829 68.5427C145.615 68.3762 143.429 68.2042 141.276 68.0167C143.162 70.8819 144.028 74.7092 143.659 78.5417C145.456 77.3428 147.273 76.1514 149.097 74.9736ZM140.407 67.1847C141.812 66.4814 144.042 64.7084 144.881 62.8477C143.172 61.6758 141.537 60.4165 139.962 59.0861C138.268 62.3427 135.67 65.0798 133.019 66.4424C135.443 66.7173 137.907 66.9636 140.407 67.1847ZM145.447 62.3689C148.29 63.0208 155.19 60.8387 159.266 57.9956C159.346 56.3625 159.464 54.7275 159.615 53.0937C154.394 56.707 146.691 59.1048 140.893 58.9521C142.366 60.155 143.874 61.2991 145.447 62.3689ZM159.982 58.1939C161.544 61.15 166.449 61.8655 170.803 59.7379C172.796 58.2328 174.771 56.7536 176.72 55.3036C169.744 57.8099 163.024 57.1037 160.312 53.4782C160.164 55.052 160.06 56.6207 159.982 58.1939ZM171.464 60.1911C173.434 63.6307 178.313 66.7796 182.741 67.4331C187.9 66.9698 193.24 66.3599 198.723 65.612C192.266 64.2382 185.802 60.413 179.465 54.2152C176.839 56.1564 174.171 58.1428 171.464 60.1911ZM197.631 74.3519C194.066 77.1982 193.218 81.0454 195.253 85.2122L194.95 85.3606C199.284 87.2995 203.604 89.1777 207.908 90.9885C204.956 85.3969 205.435 79.1243 209.128 75.1442C205.158 74.8992 201.31 74.6289 197.631 74.3519ZM181.06 79.7832C175.735 82.4273 171.993 86.9966 173.146 89.4525C175.682 93.2481 178.171 96.8982 180.636 100.434C181.242 96.2833 185.375 90.4604 191.616 87.4112C192.66 86.9009 193.76 86.473 194.907 86.1404C190.296 84.0838 185.674 81.9567 181.06 79.7832ZM168.063 83.0465C162 83.2007 156.409 86.7929 155.563 87.3576C155.016 90.2983 154.512 93.2774 154.056 96.275C154.942 95.665 156.623 94.5819 158.978 93.4315C162.237 91.8388 166.779 90.1259 172.227 89.3532C170.852 87.2927 169.466 85.195 168.063 83.0465ZM142.873 79.0687C143.423 74.9795 142.484 70.8421 140.354 67.9273C137.72 67.6877 135.118 67.4326 132.554 67.1422C136.214 71.5526 137.751 78.6786 136.883 83.1596C138.862 81.7875 140.855 80.4259 142.873 79.0687ZM131.511 66.2768C134.444 65.2658 137.5 62.2627 139.375 58.6057C136.867 56.4576 134.503 54.1715 132.2 51.881C132.063 51.7455 131.936 51.6136 131.8 51.478C129.511 56.6783 121.674 62.2532 115.725 64.0549C120.889 64.9308 126.129 65.6595 131.511 66.2768ZM139.938 58.1535C145.867 58.6385 154.324 56.0498 159.72 52.1061C159.998 49.4488 160.39 46.7859 160.935 44.0823C153.532 49.1164 139.803 52.6784 132.803 51.4771C135.086 53.7434 137.446 56.0227 139.938 58.1535ZM160.418 52.347C162.802 56.8579 171.204 57.3492 179.293 53.397C182.32 51.1675 185.306 48.9998 188.262 46.8811C176.759 51.4048 165.539 50.3929 161.623 44.3028C161.085 47.02 160.696 49.6897 160.418 52.347ZM180.048 53.7871C187.026 60.591 194.148 64.4485 201.221 65.2686C206.761 64.4762 212.439 63.5489 218.214 62.4818C206.8 60.6875 197.999 52.6405 191.472 45.5403C187.709 48.2053 183.913 50.9457 180.048 53.7871ZM236.722 75.6192C235.02 70.1932 242.135 61.8084 253.719 55.4146C242.944 58.2502 232.175 60.6954 221.639 62.7055C224.254 67.7197 230.105 73.5479 236.722 75.6192ZM237.554 75.8287C241.707 75.9839 245.942 76.1157 250.254 76.2271C260.134 76.4855 269.56 76.6026 278.482 76.5866C269.703 73.2856 259.158 62.0849 256.747 54.6945C243.77 61.1275 235.275 70.4903 237.554 75.8287ZM210.116 75.2094C206.032 79.0941 205.553 85.7207 208.954 91.4301C213.55 93.3424 218.122 95.1737 222.653 96.8898C220.336 90.5582 226.025 81.7906 235.877 76.5046C226.999 76.1617 218.291 75.7186 210.116 75.2094ZM196.003 86.6339C187.411 88.6898 181.388 96.6931 181.267 101.34C183.632 104.722 185.977 107.995 188.303 111.168C189.044 104.709 195.718 97.1384 203.762 93.2078C205.022 92.5924 206.312 92.0717 207.62 91.6518C203.758 90.0386 199.889 88.3616 196.003 86.6339ZM180.559 101.576C180.556 101.569 180.562 101.566 180.559 101.56C177.966 97.8586 175.349 94.0265 172.687 90.0391C162.026 91.4699 154.851 96.6032 153.897 97.314C153.107 102.71 152.472 108.181 152 113.666C153.174 112.78 155.882 110.909 160.37 108.716C165.066 106.422 171.711 103.782 180.559 101.576ZM135.991 83.7893C137.246 79.5072 135.591 71.3848 131.516 67.025C125.936 66.3866 120.5 65.6269 115.153 64.6971C119.333 69.5452 125.66 82.8154 122.728 93.4404C127.007 90.1944 131.436 86.9677 135.991 83.7893ZM131.841 50.5046C138.426 52.3643 153.666 48.4605 161.15 42.9987C161.842 39.7932 162.75 36.516 163.949 33.1299C154.004 39.8615 134.394 45.909 124.09 42.2146C126.592 45.0404 129.173 47.8025 131.841 50.5046ZM161.839 43.2693C165.457 50.2561 178.597 50.9288 191.303 44.7289C194.07 42.7698 196.819 40.8533 199.568 38.9703C184.925 44.8175 170.007 42.3991 164.75 33.0676C163.499 36.5719 162.548 39.9543 161.839 43.2693ZM192.049 45.132C198.935 52.6135 208.367 61.1193 220.687 62.0239C230.596 60.1429 240.771 57.8783 251.017 55.2424C225.748 57.5863 213.223 49.9416 202.732 37.7279C199.175 40.1405 195.626 42.6 192.049 45.132ZM257.397 54.4359C259.871 62.1328 271.484 74.1531 280.361 76.4194C277.133 69.7819 274.274 63.4959 272.285 58.6398C270.364 53.9532 269.771 51.873 269.676 50.9243C268.002 51.4301 266.315 51.9253 264.625 52.4137C262.227 53.1049 259.812 53.7788 257.397 54.4359ZM208.715 92.112C198.589 94.9596 189.209 104.502 188.96 112.062C191.837 115.978 194.699 119.749 197.575 123.421C197.682 115.601 207.55 104.506 218.968 98.9267C220.05 98.3979 221.143 97.9396 222.247 97.5185C217.767 95.811 213.247 94.0051 208.715 92.112ZM188.239 112.288C188.235 112.281 188.235 112.281 188.239 112.288C185.847 109.029 183.44 105.676 181.012 102.215L181.022 102.252C161.841 106.994 153.044 113.78 151.918 114.702C151.54 119.288 151.275 123.88 151.136 128.443C152.548 127.466 156.347 124.986 162.524 121.968C168.72 118.923 177.309 115.368 188.239 112.288ZM108.31 105.925C102.146 111.121 96.4674 116.299 91.3869 121.354C108.354 118.9 141.058 133.586 150.375 143.877C150.24 139.093 150.251 134.222 150.389 129.305L150.383 129.308C146.57 118.664 121.419 107 108.31 105.925ZM121.727 94.1994C125.497 83.1396 118.135 68.5869 113.989 64.4981C106.844 63.2243 99.8267 61.6517 92.7668 59.6867C101.233 68.4286 110.985 88.9652 108.706 104.601C112.853 101.133 117.2 97.6594 121.727 94.1994ZM91.4319 58.5593L91.4283 58.5358C101.979 58.1291 116.025 48.6856 121.54 40.5089L121.838 40.7343L121.853 40.7015C118.412 36.6903 115.131 32.5752 112.005 28.3759C96.1039 41.9814 80.665 46.4718 66.1762 49.7136C74.8777 53.3055 83.205 56.2115 91.4319 58.5593ZM123.035 40.9846C132.911 45.8412 154.481 39.072 164.401 31.8886C165.504 28.9295 166.818 25.8752 168.405 22.7046C152.345 33.2417 126.701 36.1487 113.389 29.041C116.451 33.1109 119.662 37.0997 123.035 40.9846ZM165.081 32.1722C170.226 42.3341 186.965 44.4362 202.548 36.8225L202.592 36.911C206.309 34.3945 210.028 31.9282 213.795 29.4804C194.863 37.027 175.767 34.1618 169.399 22.3794C167.672 25.7783 166.25 29.0287 165.081 32.1722ZM218.065 27.63C213.083 30.8151 208.193 34.0305 203.322 37.3301C214.342 50.1288 227.684 57.7953 256.153 53.8966C267.855 50.7598 279.605 47.144 291.114 43.0981C261.72 49.0512 235.372 43.539 218.065 27.63ZM297.154 41.7575C288.527 44.944 279.576 47.9343 270.387 50.7116C270.219 51.9239 273.811 61.3774 281.23 76.5769C299.511 76.4917 315.567 75.8322 328.837 74.6366C316.802 71.4758 302.51 55.3337 297.154 41.7575ZM352.114 72.2118C346.148 73.4484 339.173 74.4019 331.674 75.1313L331.671 75.1412C331.655 75.1406 331.639 75.14 331.629 75.1362C315.654 76.6838 297.301 77.217 281.151 77.2984C257.742 88.7444 243.963 100.579 245.533 104.644C255.696 107.632 265.54 109.839 274.891 110.989C270.098 100.891 276.27 82.9386 280.781 76.5093L281.368 76.973C277.007 83.1944 270.872 100.951 275.607 110.85C277.602 109.158 288.206 100.595 311.238 89.3413C322.011 84.0779 335.516 78.2298 352.114 72.2118ZM236.829 107.995C239.165 106.854 241.579 105.843 244.032 104.973C237.242 102.935 230.312 100.561 223.299 97.9235C210.012 102.661 197.475 115.947 198.322 124.389C201.801 128.812 205.305 133.096 208.862 137.296C210.123 127.36 222.006 115.238 236.829 107.995ZM166.549 135.275C176.827 130.253 188.99 125.508 197.3 124.222C194.427 120.557 191.565 116.785 188.688 112.886L188.705 112.937C165.313 119.492 152.653 128.258 151.106 129.376C150.966 134.337 150.959 139.265 151.098 144.089C154.636 141.542 160.232 138.361 166.549 135.275ZM152.707 170.105C151.453 162.259 150.701 153.788 150.409 144.991C142.04 134.843 106.881 119.029 90.4685 122.266C86.4762 126.275 82.8753 130.202 79.716 134.006C94.873 137.058 130.625 146.476 152.707 170.105ZM91.0156 120.658C96.0838 115.626 101.741 110.484 107.87 105.313C110.672 89.4973 99.8622 67.2765 91.3666 59.3081C83.3164 57.0173 75.1793 54.1955 66.7005 50.7225C81.3858 64.8763 95.856 101.889 91.0156 120.658ZM32.3531 33.3141C44.0643 39.7282 54.7878 44.955 64.9686 49.2157C79.6808 45.9659 95.3908 41.613 111.556 27.7774C108.347 23.4413 105.301 19.0348 102.39 14.5868C79.3526 32.3286 53.4938 39.1776 32.3531 33.3141ZM103.672 15.2512C106.407 19.4052 109.272 23.5208 112.277 27.5684C125.18 35.7788 152.748 32.7498 169.107 21.3161C170.72 18.2 172.593 14.9571 174.761 11.562C153.142 23.3983 117.868 23.639 103.672 15.2512ZM175.866 11.2244C173.515 14.8527 171.508 18.3042 169.787 21.6164C176.192 34.342 197.69 36.6998 217.881 26.8514C223.211 23.4461 228.656 20.0687 234.331 16.6467C208.558 27.2826 183.318 25.1762 175.866 11.2244ZM240.032 14.1141C232.575 18.5418 225.538 22.8657 218.693 27.2304C237.009 43.9368 265.504 48.9483 297.008 40.9771C320.158 32.4663 345.81 20.2362 364.034 8.46447C308.936 33.8586 259.63 30.3963 240.032 14.1141Z" fill="#E1E1E1"/>
<path d="M251.923 81.6055L138.996 151.235L366.003 194.711L474.412 120.341L251.923 81.6055Z" fill="url(#paint0_linear_4132_130821)"/>
<path d="M138.924 148.342L155.582 273.658C156.148 277.919 159.375 281.342 163.596 282.158L351.439 318.484L367.736 190.063L138.924 148.342Z" fill="url(#paint1_radial_4132_130821)"/>
<path d="M473.993 120.963L366.078 189.252L351.438 318.484L436.188 261.903C439.551 259.658 441.94 256.221 442.872 252.286L473.993 120.963Z" fill="url(#paint2_linear_4132_130821)"/>
<path d="M480.851 120.124C480.29 117.51 478.193 115.487 475.55 115.029L253.046 76.294C251.466 76.0134 249.827 76.3383 248.453 77.18L135.526 146.809C133.222 148.242 130.45 152.136 130.45 155.396C130.45 158.655 131.102 161.263 134.361 164.522L140.88 169.737L363.172 212.11C363.35 212.139 363.542 212.169 363.719 212.183C363.955 212.213 364.892 212.228 365.128 212.228C366.457 212.228 368.134 211.061 368.134 211.061L472.36 130.934L478.149 126.962C480.349 125.441 481.427 122.738 480.851 120.124ZM156.88 149.143L249.702 91.8933C251.99 90.4821 254.74 89.9619 257.388 90.4232C334.522 103.857 379.029 111.609 457.341 125.249L367.982 186.552C365.78 188.062 363.066 188.629 360.444 188.127L156.88 149.143Z" fill="url(#paint3_radial_4132_130821)"/>
<path d="M337.678 136.65C338.87 137.129 340.289 136.888 341.256 135.908L370.083 106.768C371.368 105.47 371.345 103.391 370.061 102.111C368.763 100.826 366.685 100.849 365.404 102.133L336.572 131.287C335.286 132.584 335.31 134.663 336.594 135.943C336.917 136.248 337.295 136.496 337.678 136.65Z" fill="#EBD153"/>
<path d="M302.968 114.545C304.637 114.545 306.07 113.275 306.247 111.577L310.234 70.7891C310.411 68.9727 309.082 67.363 307.281 67.1858C305.479 67.0086 303.855 68.3376 303.677 70.1393L299.675 110.927C299.498 112.744 300.827 114.354 302.629 114.531C302.747 114.545 302.85 114.545 302.968 114.545Z" fill="#EBD153"/>
<path d="M263.19 135.279C264.536 134.293 264.942 132.422 264.082 130.947L243.206 95.6797C242.276 94.1093 240.253 93.5955 238.694 94.5168C237.136 95.438 236.61 97.4699 237.532 99.0284L258.395 134.304C259.325 135.875 261.348 136.388 262.907 135.467C263.011 135.409 263.094 135.348 263.19 135.279Z" fill="#EBD153"/>
<path d="M468.126 145.734L463.563 165.291C431.831 201.837 383.722 240.413 365.78 244.107C354.046 246.522 286.902 193.974 256.166 172.798C246.485 167.246 241.503 174.51 243.878 177.677C245.461 179.787 250.954 184.338 250.954 184.338C277.124 202.448 339.705 258.667 365.78 260.466C384.778 261.776 444.658 205.708 452.48 197.233C453.65 195.707 464.579 183.042 466.822 180.284C485.681 157.097 478.68 154.276 468.126 145.734Z" fill="#D7E9E2"/>
<path d="M205.986 266.7V213.904C205.986 209.922 209.777 207.033 213.616 208.089C216.302 208.827 218.133 211.31 218.045 214.094L216.379 266.864C216.27 270.335 212.853 272.725 209.555 271.636C207.425 270.933 205.986 268.943 205.986 266.7Z" fill="#04743D"/>
<path d="M240.598 274.796L242.623 222.039C242.775 218.06 246.674 215.318 250.47 216.52C253.126 217.362 254.86 219.912 254.666 222.691L250.977 275.359C250.735 278.823 247.229 281.08 243.975 279.866C241.874 279.082 240.512 277.038 240.598 274.796Z" fill="#04743D"/>
<path d="M281.761 281.293L287.253 228.783C287.668 224.822 291.738 222.343 295.447 223.793C298.042 224.807 299.604 227.466 299.227 230.226L292.081 282.537C291.611 285.978 287.964 287.999 284.797 286.573C282.752 285.653 281.528 283.524 281.761 281.293Z" fill="#04743D"/>
<path d="M163.867 173.193C142.07 190.212 82.7977 233.874 13.0459 237.16" stroke="#A4A4A4" stroke-linecap="round"/>
<path d="M163.867 173.193C148.609 190.799 91.746 247.346 21.8486 250.658" stroke="#A4A4A4" stroke-linecap="round"/>
<path d="M39.5469 233.945C43.6549 234.532 48.9365 238.64 47.176 246.856C54.6095 248.03 59.7322 252.048 62.0796 261.437" stroke="#A4A4A4" stroke-linecap="round"/>
<path d="M19.5044 236.617C25.7642 238.182 29.7248 242.624 27.3774 250.254C35.5934 250.254 40.9876 256.157 43.335 266.72" stroke="#A4A4A4" stroke-linecap="round"/>
<path d="M53.8706 230.824C59.1523 230.824 63.4226 233.302 63.4226 242.692C70.2693 243.865 75.7466 245.626 77.5071 254.429" stroke="#A4A4A4" stroke-linecap="round"/>
<path d="M73.3193 224.822C78.0142 224.822 84.0864 224.709 84.6732 233.512C87.0206 233.512 85.5304 244.306 83.7011 255.927" stroke="#A4A4A4" stroke-linecap="round"/>
<path d="M90.3867 218.154C95.0816 217.567 102.124 217.45 102.124 224.022C107.405 223.631 112.1 228.13 110.927 233.412" stroke="#A4A4A4" stroke-linecap="round"/>
<path d="M112.506 222.063C112.506 215.021 118.572 209.98 118.572 213.242C121.828 213.106 128.665 213.649 128.34 218.542" stroke="#A4A4A4" stroke-linecap="round"/>
<path d="M121.371 202.829C123.698 202.54 128.19 202.655 129.176 205.429C131.777 205.14 137.474 205.949 137.803 209.763" stroke="#A4A4A4" stroke-linecap="round"/>
<path d="M131.366 195.783C133.401 195.312 136.946 195.406 138.341 197.664C140.666 197.037 145.927 195.688 146.624 199.076" stroke="#A4A4A4" stroke-linecap="round"/>
<path d="M143.918 188.267C145.143 187.771 147.046 187.654 148.026 189.441C149.795 189.317 152.134 189.414 152.134 191.202" stroke="#A4A4A4" stroke-linecap="round"/>
<path d="M163.868 173.193C155.423 192.678 103.422 260.048 33.5859 268.264" stroke="#A4A4A4" stroke-linecap="round"/>
<path d="M110.215 233.412C111.975 236.933 113.149 256.299 110.215 263.929" stroke="#A4A4A4" stroke-linecap="round"/>
<path d="M119.19 266.175C119.148 266.216 119.105 266.239 119.054 266.248C119.264 266.371 119.156 266.431 118.778 266.559C118.479 266.662 116.124 268.355 116.124 268.355C115.887 268.497 115.711 268.456 115.578 268.343C115.654 268.62 115.563 268.683 115.214 268.566C114.834 268.439 112.193 267.767 111.886 267.755C111.801 267.752 111.742 267.742 111.697 267.718C111.679 267.755 111.66 267.791 111.641 267.83C111.719 267.872 111.8 267.932 111.889 267.997C111.889 267.997 113.595 269.141 114.493 269.626C114.626 269.698 114.651 269.798 114.586 269.838C114.531 269.874 114.412 269.871 114.3 269.9C114.458 269.888 114.577 270.023 114.658 270.236C114.746 270.466 114.908 272.77 114.908 272.77C114.985 272.97 114.953 273.01 114.823 272.953C114.825 272.96 114.829 272.967 114.832 272.97C114.888 273.102 114.649 273.598 114.51 273.894C114.357 274.224 114.182 274.535 113.966 274.818C113.59 275.31 113.111 275.765 112.582 276.004C113.05 275.711 113.473 275.228 113.772 274.722C113.947 274.429 114.091 274.121 114.198 273.792C114.298 273.492 114.301 273.013 114.408 272.879C114.42 272.863 114.434 272.853 114.448 272.843C114.414 272.843 114.385 272.838 114.357 272.805C114.287 272.72 114.38 272.317 114.357 272.056C114.289 271.378 114.139 271.65 113.926 270.298C113.897 270.372 113.868 270.4 113.762 270.323L111.472 268.479C111.407 268.434 111.352 268.384 111.305 268.336C111.281 268.368 111.255 268.397 111.228 268.426C111.367 268.641 112.423 270.255 112.683 270.751C112.794 270.963 112.699 270.952 112.55 270.913C112.625 270.985 112.667 271.078 112.656 271.14C112.656 271.14 112.458 271.63 112.377 272.509C112.354 272.755 112.363 273.047 112.307 273.325C112.283 273.443 112.245 273.396 112.174 273.335C112.179 273.476 111.994 273.862 111.877 274.104C111.719 274.424 111.524 274.725 111.327 275.023C110.966 275.57 110.514 276.046 110.024 276.475C110.451 276.007 110.832 275.5 111.125 274.938C111.284 274.631 111.443 274.323 111.56 273.995C111.646 273.757 111.674 273.377 111.801 273.249C111.771 273.244 111.755 273.214 111.759 273.126C111.769 272.947 111.894 272.915 111.939 272.476C111.971 272.161 111.85 271.95 111.967 271.026C111.971 271.005 111.974 270.984 111.984 270.965C111.936 271.011 111.908 271.046 111.882 271.007C111.882 271.007 111.556 270.212 111.325 269.694C111.153 269.305 110.914 268.966 110.806 268.818C110.694 268.899 110.58 268.97 110.46 269.025C110.556 269.159 110.599 269.31 110.571 269.464C110.543 269.621 110.443 269.753 110.301 269.847C110.354 269.957 110.373 270.074 110.327 270.194C110.256 270.389 110.095 270.519 109.879 270.615C110.005 270.506 110.126 270.363 110.119 270.199C110.114 270.122 110.097 270.03 110.033 269.961C109.892 269.997 109.732 270.002 109.569 269.972C109.406 269.943 109.261 269.884 109.141 269.801C109.059 269.848 109.004 269.917 108.977 269.998C108.925 270.154 108.976 270.316 109.059 270.465C108.892 270.304 108.776 270.118 108.785 269.911C108.78 269.788 108.838 269.683 108.929 269.601C108.829 269.464 108.781 269.305 108.809 269.148C108.836 268.994 108.929 268.867 109.065 268.775C108.982 268.693 108.904 268.597 108.834 268.492C108.668 268.603 108.352 268.828 108.075 269.112C107.679 269.518 107.097 270.15 107.097 270.15C107.056 270.176 107.045 270.135 107.016 270.075C107.016 270.093 107.015 270.114 107.011 270.138C106.8 271.045 106.613 271.201 106.533 271.508C106.423 271.934 106.529 272.008 106.477 272.179C106.453 272.264 106.427 272.287 106.395 272.281C106.469 272.444 106.364 272.81 106.361 273.064C106.358 273.408 106.399 273.755 106.439 274.099C106.519 274.727 106.7 275.335 106.938 275.922C106.628 275.346 106.372 274.744 106.22 274.108C106.139 273.76 106.058 273.41 106.023 273.055C105.995 272.787 105.958 272.361 106.012 272.231C105.924 272.264 105.872 272.294 105.891 272.175C105.934 271.899 106.044 271.628 106.109 271.386C106.338 270.534 106.322 270.005 106.322 270.005C106.333 269.943 106.405 269.87 106.501 269.829C106.347 269.814 106.254 269.791 106.432 269.631C106.826 269.273 108.252 268.214 108.565 267.983C108.548 267.943 108.533 267.903 108.52 267.861C108.47 267.883 108.415 267.901 108.357 267.918L105.569 268.852C105.443 268.888 105.425 268.851 105.424 268.771C104.755 269.963 104.707 269.655 104.41 270.271C104.294 270.507 104.242 270.917 104.149 270.973C104.111 270.997 104.082 270.992 104.051 270.977C104.06 270.991 104.07 271.008 104.076 271.024C104.129 271.187 103.969 271.638 103.955 271.954C103.942 272.3 103.97 272.638 104.032 272.973C104.14 273.552 104.365 274.152 104.703 274.589C104.293 274.182 103.999 273.588 103.817 272.996C103.713 272.656 103.658 272.301 103.627 271.941C103.6 271.615 103.548 271.067 103.647 270.963C103.651 270.957 103.658 270.953 103.661 270.95C103.519 270.958 103.503 270.91 103.645 270.749C103.645 270.749 104.598 268.641 104.759 268.459C104.909 268.287 105.068 268.203 105.212 268.268C105.117 268.202 105.004 268.164 104.965 268.111C104.918 268.048 104.973 267.966 105.126 267.944C106.137 267.798 108.133 267.321 108.133 267.321C108.217 267.296 108.298 267.274 108.37 267.26C108.363 267.216 108.359 267.172 108.354 267.128C108.315 267.124 108.268 267.113 108.216 267.098C107.924 267.002 105.215 266.716 104.817 266.702C104.449 266.689 104.385 266.601 104.553 266.368C104.389 266.427 104.213 266.405 104.037 266.19C104.037 266.19 102.417 263.781 102.171 263.584C101.862 263.333 101.781 263.239 102.021 263.196C101.979 263.17 101.943 263.133 101.922 263.08C101.82 262.848 101.945 262.442 102.007 262.13C102.083 261.74 102.185 261.357 102.337 260.987C102.61 260.333 102.985 259.675 103.491 259.173C103.089 259.709 102.786 260.377 102.618 261.022C102.501 261.469 102.409 261.829 102.419 262.289C102.423 262.571 102.565 262.823 102.486 263.023C102.532 263.006 102.578 263.005 102.624 263.035C102.776 263.129 102.603 263.203 103.066 263.848C103.47 264.41 103.653 264.293 104.769 265.706C104.782 265.721 104.791 265.738 104.8 265.755C104.824 265.637 104.862 265.561 105.013 265.573C105.345 265.599 108.073 266.36 108.073 266.36C108.177 266.378 108.278 266.396 108.362 266.42C108.365 266.384 108.372 266.349 108.378 266.316C108.382 266.29 108.388 266.26 108.395 266.234C108.182 266.11 106.125 264.928 105.572 264.704C105.107 264.517 105.137 264.317 105.344 264.204C105.213 264.135 105.118 264.017 105.095 263.918C105.095 263.918 104.74 260.901 104.584 260.476C104.505 260.253 104.432 260.081 104.685 260.151C104.669 260.124 104.659 260.092 104.656 260.057C104.648 259.9 104.78 259.759 104.851 259.615C105.564 258.147 106.83 256.971 108.258 256.199C106.916 257.069 105.748 258.33 105.184 259.84C105.147 259.944 105.089 260.095 105.007 260.197C105.12 260.183 105.193 260.166 105.183 260.357C105.174 260.581 105.207 260.924 105.334 261.377C105.46 261.831 105.609 261.907 106.086 263.762C106.088 263.769 106.088 263.772 106.09 263.775C106.163 263.73 106.233 263.731 106.337 263.832C107.387 264.849 108.365 265.394 108.702 265.564C108.744 265.514 108.789 265.47 108.837 265.426C107.663 264.568 107.02 263.003 107.313 261.368C107.711 259.149 109.683 257.647 111.715 258.011C113.751 258.376 115.075 260.469 114.678 262.688C114.385 264.323 113.238 265.57 111.84 265.964C111.872 266.025 111.901 266.088 111.923 266.154C112.241 266.119 113.391 265.964 114.789 265.343C114.922 265.284 114.988 265.309 115.04 265.376C115.043 265.374 115.045 265.368 115.048 265.365C116.143 263.794 116.309 263.772 116.582 263.39C116.858 263.008 117.008 262.702 117.078 262.485C117.134 262.305 117.198 262.344 117.298 262.396C117.256 262.272 117.258 262.108 117.256 262C117.252 260.385 116.597 258.8 115.638 257.518C116.71 258.735 117.488 260.278 117.646 261.905C117.661 262.063 117.739 262.243 117.676 262.387C117.661 262.418 117.641 262.445 117.616 262.465C117.878 262.488 117.753 262.624 117.598 262.804C117.304 263.149 115.923 265.855 115.923 265.855C115.868 265.94 115.738 266.021 115.591 266.037C115.746 266.215 115.708 266.41 115.203 266.426C114.576 266.446 112.003 266.883 112.003 266.883C111.991 266.884 111.978 266.888 111.968 266.889C111.964 266.91 111.961 266.931 111.957 266.952C111.951 266.987 111.944 267.026 111.934 267.064C112.035 267.063 112.153 267.085 112.28 267.11C112.28 267.11 115.103 267.344 115.423 267.435C115.566 267.476 115.578 267.561 115.56 267.68C115.574 267.667 115.591 267.658 115.606 267.645C117.143 266.71 117.274 266.883 117.848 266.494C118.509 266.049 118.37 265.921 118.544 265.885C118.598 265.873 118.641 265.89 118.679 265.921C118.674 265.706 118.892 265.516 118.996 265.256C119.165 264.828 119.203 264.459 119.249 263.999C119.316 263.335 119.264 262.604 119.073 261.962C119.372 262.612 119.496 263.355 119.525 264.064C119.542 264.464 119.502 264.855 119.438 265.25C119.39 265.568 119.366 265.992 119.19 266.175ZM113.871 274.666C114.086 274.417 114.24 274.124 114.37 273.823C114.442 273.662 114.5 273.492 114.543 273.322C114.574 273.184 114.67 272.935 114.555 272.862C114.485 272.975 114.498 273.143 114.469 273.272C114.429 273.442 114.378 273.607 114.316 273.767C114.199 274.08 114.061 274.388 113.871 274.666ZM114.832 272.882C114.795 272.7 114.531 272.62 114.386 272.743C114.576 272.726 114.751 272.79 114.832 272.882ZM114.396 271.666C114.493 271.858 113.892 270.42 114.416 270.034C114.274 270.008 114.116 270.09 114.035 270.253C113.97 270.376 114.298 271.477 114.396 271.666ZM113.819 270.229C113.896 270.24 113.869 269.78 114.429 269.792C114.106 269.617 113.959 270.007 113.666 269.903C113.376 269.799 112.181 268.771 111.56 268.415C112.334 268.961 113.754 270.218 113.819 270.229ZM103.685 270.884C103.79 270.826 103.98 270.827 104.152 270.91C104.056 270.743 103.784 270.724 103.685 270.884ZM102.353 262.773C102.338 262.69 102.325 262.608 102.321 262.525C102.309 262.34 102.318 262.152 102.332 261.968C102.359 261.648 102.428 261.334 102.54 261.033C102.388 261.333 102.302 261.66 102.261 261.992C102.23 262.179 102.226 262.374 102.238 262.565C102.242 262.612 102.27 263.017 102.371 262.981C102.423 262.962 102.36 262.801 102.353 262.773ZM102.049 263.296C102.199 263.414 102.457 263.323 102.486 263.139C102.412 263.232 102.237 263.305 102.049 263.296ZM104.698 265.984C104.233 266.479 103.42 264.908 103.002 264.491C103.097 264.682 104.195 266.246 104.331 266.273C104.509 266.302 104.688 266.105 104.698 265.984ZM105.042 266.434C104.764 266.299 105.171 265.833 104.961 265.707C104.98 266.096 104.628 266.51 104.69 266.557C104.741 266.597 107.311 266.841 108.247 267.011C107.56 266.815 105.321 266.57 105.042 266.434ZM104.616 260.261C104.709 260.428 104.984 260.443 105.083 260.287C104.975 260.344 104.788 260.344 104.616 260.261ZM104.977 261.696C104.963 261.91 105.18 263.875 105.285 263.967C105.423 264.084 105.679 264.004 105.746 263.903C105.172 264.021 105.128 262.267 104.977 261.696ZM105.92 264.537C105.71 264.31 106.314 264.094 106.166 263.899C106.042 264.268 105.356 264.39 105.399 264.459C105.432 264.516 107.416 265.471 108.222 265.973C107.652 265.538 106.128 264.76 105.92 264.537ZM105.064 268.358C105.419 268.902 104.36 270.039 104.517 269.896C104.674 269.75 105.364 268.834 105.349 268.697C105.327 268.515 105.206 268.384 105.064 268.358ZM105.811 268.492C105.503 268.489 105.501 268.072 105.134 268.123C105.664 268.307 105.475 268.728 105.554 268.746C105.619 268.76 107.387 268.071 108.306 267.826C107.599 267.947 106.119 268.495 105.811 268.492ZM111.563 274.203C111.442 274.521 111.291 274.831 111.136 275.133C111.326 274.858 111.488 274.566 111.625 274.264C111.701 274.097 111.775 273.923 111.824 273.749C111.854 273.65 111.952 273.448 111.867 273.359C111.826 273.379 111.806 273.409 111.798 273.451C111.784 273.534 111.76 273.612 111.74 273.694C111.693 273.866 111.627 274.035 111.563 274.203ZM111.814 273.16C112.004 273.142 112.181 273.208 112.26 273.298C112.22 273.113 111.958 273.036 111.814 273.16ZM112.039 272.363C112.075 272.574 111.966 271.029 112.488 271.018C112.418 270.963 112.229 270.914 112.114 270.991C111.999 271.068 112.004 272.151 112.039 272.363ZM111.949 270.821C112.014 270.866 112.134 270.57 112.632 270.827C112.585 270.663 112.149 270.695 111.95 270.457C111.72 270.184 111.419 269.423 110.984 268.887C111.492 269.65 111.894 270.783 111.949 270.821ZM109.594 269.797C109.831 269.839 110.055 269.769 110.174 269.631C110.049 269.731 109.854 269.779 109.653 269.743C109.33 269.685 109.102 269.439 109.146 269.193C109.158 269.128 109.186 269.072 109.232 269.022C109.157 269.082 109.106 269.159 109.09 269.251C109.043 269.493 109.272 269.739 109.594 269.797ZM106.888 270.055C106.807 269.942 106.612 269.923 106.528 269.95C107.013 270.141 106.376 271.55 106.482 271.367C106.589 271.181 106.969 270.167 106.888 270.055ZM106.199 272.741C106.188 272.922 106.194 273.11 106.207 273.293C106.233 273.628 106.284 273.955 106.364 274.278C106.323 273.94 106.293 273.599 106.29 273.259C106.288 273.078 106.281 272.896 106.298 272.716C106.307 272.632 106.313 272.55 106.328 272.467C106.335 272.426 106.326 272.388 106.295 272.358C106.185 272.411 106.208 272.639 106.199 272.741ZM105.953 272.168C106.058 272.11 106.248 272.111 106.419 272.193C106.324 272.026 106.052 272.008 105.953 272.168ZM107.231 269.609C106.962 269.762 106.563 269.581 106.462 269.718C107.019 269.65 107.029 269.97 107.106 269.95C107.17 269.934 107.938 269.011 108.683 268.468C108.087 268.823 107.541 269.435 107.231 269.609ZM108.728 267.054C108.702 267.888 109.319 268.633 109.866 268.615C110.58 268.591 111.362 267.8 111.337 266.876C111.311 265.952 110.507 265.811 109.96 265.826C109.416 265.845 108.831 266.197 108.728 267.054ZM117.503 261.986C117.497 261.9 117.491 261.813 117.483 261.726C117.464 261.524 117.445 261.322 117.407 261.125C117.353 260.779 117.266 260.443 117.151 260.113C117.228 260.451 117.302 260.791 117.338 261.134C117.362 261.322 117.38 261.515 117.395 261.704C117.404 261.791 117.407 261.877 117.412 261.964C117.416 262.032 117.406 262.119 117.468 262.167C117.522 262.118 117.507 262.048 117.503 261.986ZM117.648 262.596C117.458 262.614 117.28 262.549 117.202 262.458C117.239 262.639 117.5 262.72 117.648 262.596ZM115.734 265.837C115.865 265.79 116.751 264.019 116.812 263.813C116.472 264.296 115.822 265.926 115.324 265.616C115.349 265.734 115.561 265.9 115.734 265.837ZM115.457 266.258C115.518 266.208 114.92 265.856 114.932 265.467C114.725 265.598 115.217 266.01 114.941 266.15C114.665 266.29 112.969 266.491 112.284 266.698C113.213 266.51 115.406 266.301 115.457 266.258ZM115.43 267.583C115.19 267.629 115.41 268.209 115.102 268.237C114.795 268.264 112.608 267.719 111.894 267.662C112.831 267.827 115.326 268.491 115.387 268.471C115.464 268.451 115.275 267.94 115.43 267.583ZM115.584 267.935C115.548 268.051 115.651 268.298 115.831 268.331C115.968 268.355 117.541 267.27 117.696 267.121C117.156 267.37 115.845 268.559 115.584 267.935ZM118.643 266.034C118.607 266.217 118.817 266.392 118.999 266.333C118.82 266.276 118.681 266.148 118.643 266.034ZM119.322 264.037C119.325 264.358 119.278 264.677 119.192 264.986C119.141 265.166 119.085 265.343 119.009 265.512C118.976 265.589 118.936 265.661 118.893 265.733C118.876 265.758 118.764 265.887 118.801 265.918C118.881 265.988 119.051 265.618 119.071 265.575C119.147 265.403 119.212 265.215 119.248 265.029C119.327 264.707 119.36 264.371 119.322 264.037Z" fill="#223932"/>
</g>
<defs>
<linearGradient id="paint0_linear_4132_130821" x1="307.11" y1="175.721" x2="316.236" y2="91.6282" gradientUnits="userSpaceOnUse">
<stop stop-color="#016D46"/>
<stop offset="1" stop-color="#1E8E66"/>
</linearGradient>
<radialGradient id="paint1_radial_4132_130821" cx="0" cy="0" r="1" gradientUnits="userSpaceOnUse" gradientTransform="translate(185.227 172.207) rotate(46.2194) scale(339.312 245.488)">
<stop stop-color="#059948"/>
<stop offset="1" stop-color="#027042"/>
</radialGradient>
<linearGradient id="paint2_linear_4132_130821" x1="412.716" y1="120.963" x2="412.716" y2="317.832" gradientUnits="userSpaceOnUse">
<stop stop-color="#08A261"/>
<stop offset="1" stop-color="#006241"/>
</linearGradient>
<radialGradient id="paint3_radial_4132_130821" cx="0" cy="0" r="1" gradientUnits="userSpaceOnUse" gradientTransform="translate(110.769 132.139) rotate(19.5853) scale(207.805 333.623)">
<stop stop-color="#059948"/>
<stop offset="1" stop-color="#027042"/>
</radialGradient>
<clipPath id="clip0_4132_130821">
<rect width="480.556" height="346" fill="white" transform="translate(0.722168 0.560547)"/>
</clipPath>
</defs>
</svg>
