<svg width="414" height="297" viewBox="0 0 414 297" fill="none" xmlns="http://www.w3.org/2000/svg">
<g clip-path="url(#clip0_4132_130755)">
<path d="M3.01807 100.074C3.01807 76.9313 23.8622 58.1706 49.571 58.1706H59.2797C54.7332 54.6299 51.8596 49.406 51.8596 43.5766C51.8596 32.9134 61.4555 24.272 73.299 24.272H105.617C102.353 21.737 100.27 17.991 100.27 13.814C100.27 6.18858 107.136 0 115.613 0H196.763C205.24 0 212.106 6.17832 212.106 13.814C212.106 21.4394 205.24 27.6279 196.763 27.6279H166.374C160.719 31.1071 157.004 36.9467 157.004 43.5766C157.004 49.406 159.877 54.6299 164.424 58.1706H214.394C240.103 58.1706 260.947 76.9313 260.947 100.074C260.947 123.217 240.103 141.978 214.394 141.978H280.591C292.434 141.978 302.03 150.62 302.03 161.283C302.03 171.946 292.434 180.587 280.591 180.587H307.562C337.037 180.587 361.494 199.82 366.348 225.098H375.79C394.161 225.098 409.063 238.512 409.063 255.045V258.083C409.063 274.627 394.171 288.031 375.79 288.031H307.552H84.2496H62.6973C29.7326 288.031 3.01807 263.974 3.01807 234.304C3.01807 204.634 29.7429 180.577 62.6973 180.577H167.174C155.331 180.577 145.735 171.936 145.735 161.272C145.735 150.609 155.331 141.968 167.174 141.968H49.571C23.8622 141.978 3.01807 123.217 3.01807 100.074Z" fill="#E1E1E1"/>
<path d="M265.679 30.2237C273.982 30.2237 280.714 23.5427 280.714 15.3013C280.714 7.05988 273.982 0.378906 265.679 0.378906C257.375 0.378906 250.643 7.05988 250.643 15.3013C250.643 23.5427 257.375 30.2237 265.679 30.2237Z" fill="#E1E1E1"/>
<path d="M413.25 290.678C413.25 298.827 323.962 296.897 210.053 296.897C96.1444 296.897 0.75 298.827 0.75 290.678C0.75 282.529 96.1444 280.641 210.053 280.641C323.962 280.641 413.25 282.529 413.25 290.678Z" fill="#B3DDC4"/>
<path d="M404.619 51.4377C404.352 49.6622 402.926 43.8944 395.464 44.2536C395.464 44.2536 395.3 32.6564 381.733 37.4595C381.733 37.4595 370.495 24.056 363.023 39.1323C363.023 39.1323 347.742 32.3998 346.879 50.4524C346.849 51.1298 347.29 51.6942 347.865 51.6942L404.25 51.9405C404.486 51.9508 404.66 51.7045 404.619 51.4377Z" fill="#E1E1E1"/>
<path d="M167.62 102.887C164.264 102.887 161.647 105.802 162.006 109.137L180.808 283.906C181.116 286.728 183.497 288.863 186.329 288.863H310.902C313.724 288.863 316.105 286.738 316.423 283.936L336.261 109.168C336.641 105.812 334.024 102.877 330.647 102.877H167.62V102.887Z" fill="url(#paint0_linear_4132_130755)"/>
<path opacity="0.21" d="M243.597 265.135C243.258 264.787 243.073 264.304 243.073 263.822V125.815C243.073 125.333 243.248 124.851 243.597 124.502C248.862 119.206 255.225 122.849 255.225 127.971V261.667C255.215 266.798 248.852 270.441 243.597 265.135Z" fill="#E1E1E1"/>
<path opacity="0.21" d="M220.741 263.923C216.164 269.844 209.401 267.002 208.774 261.901L192.22 127.066C192.159 126.583 192.272 126.081 192.58 125.701C197.157 119.8 203.91 122.642 204.536 127.733L221.09 262.588C221.141 263.05 221.028 263.543 220.741 263.923Z" fill="#E1E1E1"/>
<path opacity="0.21" d="M287.481 265.288C287.861 264.991 288.097 264.529 288.159 264.046L304.713 129.211C305.339 124.121 299.469 119.728 293.598 124.347C293.218 124.644 292.982 125.106 292.921 125.588L276.367 260.424C275.741 265.514 281.611 269.907 287.481 265.288Z" fill="#E1E1E1"/>
<path d="M319.031 59.0149L312.246 54.7743L318.324 45.0584C318.862 44.2009 318.626 43.0794 317.806 42.5706L286.878 23.2237C286.058 22.7054 284.946 22.9881 284.409 23.8457L278.33 33.5615L271.545 29.3208L277.623 19.605C280.601 14.8366 286.746 13.2817 291.307 16.1371L322.235 35.4839C326.796 38.3393 328.078 44.5401 325.1 49.3085L319.031 59.0149Z" fill="url(#paint1_linear_4132_130755)"/>
<path d="M367.742 89.4826L226.82 1.34266C225.303 0.400292 223.315 0.85263 222.372 2.36985L214.777 14.5076C213.834 16.0248 214.287 18.0132 215.804 18.9556L356.726 107.095C358.243 108.038 360.232 107.585 361.174 106.068L368.77 93.9305C369.712 92.4228 369.26 90.4344 367.742 89.4826Z" fill="url(#paint2_linear_4132_130755)"/>
<path d="M200.777 69.2511C177.952 74.2389 113.737 69.5282 114.507 42.6392C115.163 19.5783 152.223 21.4359 147.04 46.9907C142.453 69.5898 86.1706 70.7187 67.0404 60.1889C52.9288 52.4198 45.7242 42.2698 42.9224 37.4872" stroke="#5A846E" stroke-linecap="round" stroke-linejoin="round" stroke-dasharray="3.01 3.01"/>
<path d="M118.085 284.366C118.085 284.366 126.552 268.048 120.578 266.365C114.595 264.682 115.221 282.191 115.221 282.191C115.221 282.191 113.353 261.387 107.124 261.008C100.894 260.638 107.247 278.014 110.859 284.428C110.859 284.428 111.527 286.039 114.144 285.67C116.771 285.3 117.571 284.869 118.085 284.366Z" fill="#48AA6F"/>
<path d="M339.593 283.146C339.593 283.146 333.826 272.031 337.9 270.892C341.974 269.742 341.543 281.668 341.543 281.668C341.543 281.668 342.816 267.505 347.055 267.248C351.293 266.992 346.972 278.825 344.509 283.197C344.509 283.197 344.058 284.295 342.272 284.038C340.497 283.782 339.942 283.484 339.593 283.146Z" fill="#48AA6F"/>
<g filter="url(#filter0_d_4132_130755)">
<path d="M121.93 68.6235C171.236 68.2682 211.319 108.062 211.674 157.449C211.674 174.504 207.062 190.137 198.904 203.994L220.542 237.392L173.719 230.997C159.175 241.301 141.794 247.341 122.639 247.341C73.3329 247.696 33.2496 207.902 32.8949 158.515C32.8949 109.128 72.6235 68.9788 121.93 68.6235Z" fill="white"/>
</g>
<path d="M104.577 186.424C104.224 186.438 103.936 186.142 103.96 185.789C104.508 178.785 108.047 169.564 109.915 165.522C111.783 161.481 114.647 157.526 117.753 155.152C120.858 152.777 124.471 151.491 128.724 149.598C131.286 148.44 133.612 147.028 135.702 145.36C137.794 143.656 139.485 141.648 140.776 139.338C142.108 137.03 142.811 135.009 143.003 132.11C143.241 128.513 142.484 125.33 140.73 122.56C138.976 119.79 137.494 118.65 134.36 117.005C131.226 115.36 128.403 114.304 124.461 114.042C121.022 113.815 117.153 114.382 114.399 115.256C111.645 116.129 106.986 117.74 105.229 121.755C104.6 123.194 104.102 124.663 103.697 126.129C102.214 131.495 97.2297 135.257 91.7836 134.102C86.591 133.001 83.17 127.873 84.7028 122.791C86.4665 116.943 88.3219 113.464 90.4756 110.879C93.5856 107.147 99.5386 103.55 105.229 101.568C110.962 99.5892 118.231 98.0084 125.024 98.4585C132.404 98.9475 139.377 102.138 144.658 105.068C149.981 108.001 154.023 113.449 156.704 118.123C159.426 122.801 160.111 129.011 159.732 134.736C159.464 138.773 158.509 142.377 156.867 145.549C155.267 148.723 153.061 151.508 150.249 153.902C147.479 156.298 144.183 158.365 140.362 160.102C136.538 161.876 133.349 163.173 130.978 165.265C128.61 167.32 127.901 168.48 126.537 171.102C125.173 173.724 124.337 180.486 123.951 185.031C123.927 185.407 123.622 185.703 123.246 185.717L104.577 186.424ZM114.067 217.521C110.964 217.315 108.365 216.166 106.272 214.074C104.178 211.982 103.221 209.578 103.401 206.862C103.581 204.146 104.847 201.889 107.198 200.092C109.55 198.294 112.277 197.498 115.38 197.703C118.483 197.909 121.081 199.058 123.175 201.15C125.268 203.243 126.225 205.647 126.045 208.362C125.926 210.161 125.292 211.777 124.144 213.213C123.038 214.651 121.595 215.771 119.815 216.575C118.079 217.345 116.163 217.66 114.067 217.521Z" fill="#D3705A"/>
</g>
<defs>
<filter id="filter0_d_4132_130755" x="22.895" y="68.6211" width="207.646" height="201.723" filterUnits="userSpaceOnUse" color-interpolation-filters="sRGB">
<feFlood flood-opacity="0" result="BackgroundImageFix"/>
<feColorMatrix in="SourceAlpha" type="matrix" values="0 0 0 0 0 0 0 0 0 0 0 0 0 0 0 0 0 0 127 0" result="hardAlpha"/>
<feOffset dy="13"/>
<feGaussianBlur stdDeviation="5"/>
<feComposite in2="hardAlpha" operator="out"/>
<feColorMatrix type="matrix" values="0 0 0 0 0 0 0 0 0 0 0 0 0 0 0 0 0 0 0.1 0"/>
<feBlend mode="normal" in2="BackgroundImageFix" result="effect1_dropShadow_4132_130755"/>
<feBlend mode="normal" in="SourceGraphic" in2="effect1_dropShadow_4132_130755" result="shape"/>
</filter>
<linearGradient id="paint0_linear_4132_130755" x1="249.136" y1="102.877" x2="249.136" y2="288.863" gradientUnits="userSpaceOnUse">
<stop stop-color="#08A261"/>
<stop offset="1" stop-color="#006241"/>
</linearGradient>
<linearGradient id="paint1_linear_4132_130755" x1="299.126" y1="14.707" x2="299.126" y2="59.0149" gradientUnits="userSpaceOnUse">
<stop stop-color="#08A261"/>
<stop offset="1" stop-color="#006241"/>
</linearGradient>
<linearGradient id="paint2_linear_4132_130755" x1="291.773" y1="0.851562" x2="291.773" y2="107.587" gradientUnits="userSpaceOnUse">
<stop stop-color="#08A261"/>
<stop offset="1" stop-color="#006241"/>
</linearGradient>
<clipPath id="clip0_4132_130755">
<rect width="412.5" height="297" fill="white" transform="translate(0.75)"/>
</clipPath>
</defs>
</svg>
