<svg width="414" height="297" viewBox="0 0 414 297" fill="none" xmlns="http://www.w3.org/2000/svg">
<g clip-path="url(#clip0_4132_130860)">
<path d="M248.933 251.845C266.547 244.349 294.279 242.101 307.396 244.349C329.774 248.186 346.564 254.609 333.254 275.08C319.944 295.55 270.782 281.145 248.933 275.08C227.085 269.014 233.341 258.48 248.933 251.845Z" fill="#D5FCE2"/>
<path d="M87.1126 147.286C126.837 141.936 119.154 119.472 162.439 78.7054C265.498 -18.3571 349.845 83.5735 350.568 160.16C351.046 210.776 326.974 229.988 277.865 233.856C193.382 243.803 195.162 314.431 92.2482 290.407C55.4627 281.82 40.9245 248.808 37.2697 226.735C32.3627 197.1 47.3882 152.636 87.1126 147.286Z" fill="#F4F4F4"/>
<path d="M90.7407 118.01C88.1495 117.46 85.6508 119.281 85.381 121.915L71.2305 259.938C71.0053 262.167 72.4935 264.206 74.6805 264.671L170.863 285.105C173.042 285.567 175.229 284.318 175.934 282.207L219.918 150.522C220.762 147.993 219.223 145.298 216.616 144.744L90.7423 118.002L90.7407 118.01Z" fill="#B9CCD5"/>
<path d="M123.892 249.534C123.706 249.254 123.649 248.906 123.722 248.584L144.673 156.448C144.746 156.126 144.943 155.828 145.242 155.644C149.767 152.846 153.71 156.17 152.932 159.59L132.635 248.848C131.849 252.272 126.8 253.813 123.892 249.534Z" fill="#A4B8C1"/>
<path d="M107.926 245.521C103.792 248.833 99.4446 245.988 99.7766 242.495L108.549 150.156C108.579 149.825 108.735 149.505 109.01 149.295C113.14 145.997 117.48 148.841 117.15 152.327L108.375 244.68C108.341 244.995 108.186 245.308 107.926 245.521Z" fill="#A4B8C1"/>
<path d="M154.878 255.786C155.192 255.641 155.429 255.366 155.545 255.052L187.713 167.353C188.928 164.043 185.447 160.287 180.597 162.548C180.284 162.694 180.047 162.969 179.93 163.282L147.763 250.981C146.548 254.292 150.029 258.047 154.878 255.786Z" fill="#A4B8C1"/>
<path d="M285.994 104.101L300.193 92.425L354.679 78.8941L348.559 87.8994L297.645 101.028L285.994 104.101Z" fill="#A98D72"/>
<path opacity="0.47" d="M171.632 70.9041C171.707 68.9658 171.194 67.0757 170.026 65.4961C166.896 61.265 160.276 60.8625 155.231 64.5947C150.185 68.3269 148.633 74.7748 151.763 79.0059C152.931 80.5855 154.588 81.629 156.464 82.1245L171.632 70.9041Z" fill="#DCF9FF"/>
<path opacity="0.47" d="M164.385 76.9365C169.513 73.1433 172.931 69.0688 172.019 67.8359C171.106 66.603 166.21 68.6785 161.082 72.4717C155.955 76.2649 152.537 80.3393 153.449 81.5723C154.361 82.8052 159.258 80.7297 164.385 76.9365Z" fill="#EEE5E2"/>
<path opacity="0.73" d="M163.995 76.289C168.811 72.7263 172.147 69.0696 171.445 68.1216C170.744 67.1735 166.271 69.2931 161.455 72.8558C156.639 76.4185 153.303 80.0752 154.005 81.0233C154.706 81.9713 159.179 79.8517 163.995 76.289Z" fill="#EEE5E2"/>
<g opacity="0.25">
<path d="M171.453 68.1167C171.524 68.2134 171.556 68.34 171.545 68.4602C171.542 68.5745 171.509 68.6985 171.478 68.8086C171.409 69.0347 171.291 69.2465 171.173 69.4582C170.932 69.8737 170.647 70.2467 170.354 70.6258C169.755 71.3677 169.107 72.0592 168.427 72.7244C167.073 74.0628 165.595 75.2681 164.066 76.3869C162.523 77.5035 160.916 78.5175 159.264 79.453C158.434 79.9167 157.593 80.3643 156.721 80.7355C156.5 80.8243 156.278 80.913 156.051 80.9937C155.824 81.0745 155.605 81.1492 155.366 81.2138C155.135 81.2724 154.898 81.323 154.654 81.3294C154.531 81.3326 154.403 81.3278 154.279 81.2949C154.155 81.262 154.029 81.193 153.937 81.0861C153.854 80.9733 153.819 80.8247 153.824 80.6964C153.829 80.5681 153.855 80.4359 153.894 80.3199C153.966 80.0798 154.078 79.86 154.201 79.6563C154.443 79.2408 154.73 78.8537 155.029 78.4828C155.634 77.7489 156.296 77.0595 156.99 76.3964C158.362 75.0822 159.834 73.8688 161.371 72.7441C162.908 71.6194 164.499 70.5672 166.167 69.6699C167.008 69.2223 167.853 68.7968 168.738 68.4417C169.18 68.2642 169.626 68.1087 170.094 67.9995C170.325 67.9409 170.56 67.9043 170.805 67.8979C170.927 67.8947 171.047 67.9055 171.157 67.9363C171.27 67.9531 171.381 68.02 171.453 68.1167ZM171.429 68.1346C171.357 68.0379 171.257 67.9871 171.147 67.9563C171.037 67.9255 170.917 67.9147 170.801 67.926C170.57 67.9345 170.335 67.971 170.104 68.0297C169.642 68.1469 169.202 68.3104 168.772 68.5041C167.905 68.8833 167.076 69.3471 166.259 69.8269C165.447 70.3148 164.654 70.8269 163.873 71.355C163.091 71.8832 162.314 72.4335 161.556 72.9939C160.798 73.5543 160.051 74.1449 159.317 74.7376C158.589 75.3383 157.873 75.9551 157.175 76.5962C156.491 77.2393 155.817 77.9125 155.209 78.6243C154.904 78.9872 154.613 79.3522 154.373 79.7536C154.258 79.9514 154.148 80.1572 154.066 80.3672C154.03 80.4692 154.005 80.5873 153.996 80.6935C153.987 80.7997 154.015 80.9042 154.068 80.9767C154.128 81.0573 154.214 81.106 154.316 81.1427C154.42 81.1655 154.532 81.1822 154.647 81.185C154.869 81.1825 155.104 81.1459 155.335 81.0873C155.795 80.984 156.235 80.8205 156.677 80.643C157.548 80.2858 158.395 79.8463 159.218 79.3745C160.041 78.9027 160.834 78.3906 161.624 77.8565C162.405 77.3283 163.171 76.7619 163.923 76.1934C165.434 75.0505 166.902 73.8652 168.309 72.5993C169.007 71.9583 169.685 71.3071 170.31 70.5834C170.621 70.2285 170.914 69.8495 171.153 69.4481C171.277 69.2444 171.387 69.0386 171.456 68.8125C171.495 68.6964 171.518 68.5923 171.523 68.464C171.526 68.3498 171.5 68.2313 171.429 68.1346Z" fill="#FFF9F7"/>
</g>
<path opacity="0.47" d="M157.039 83.2557L175.861 103.811C175.861 103.811 183.675 102.406 187.077 95.5756L172.274 71.4002C172.274 71.4002 168.034 78.5642 157.039 83.2557Z" fill="#EEE5E2"/>
<path d="M157.235 81.8506L176.142 103.028C176.142 103.028 183.805 100.913 185.659 95.6636L171.023 70.4166L157.235 81.8506Z" fill="#363130"/>
<path d="M162.248 88.73C162.248 88.73 172.555 85.4695 177.232 77.1595L172.697 66.5111L155.089 80.6709L162.248 88.73Z" fill="#655752"/>
<path d="M155.415 56.1276L159.796 70.2937L161.867 70.3454L157.163 55.8443L155.415 56.1276Z" fill="#048452"/>
<path d="M155.366 80.6417C155.212 81.2422 155.164 82.088 156.173 82.0024C157.429 81.8964 158.932 80.9098 160.031 79.8844C157.438 80.8799 156.117 80.5604 155.366 80.6417Z" fill="#363130"/>
<path d="M157.555 77.3269C156.046 77.4954 155.484 77.2251 155.352 76.8613C154.533 77.9286 152.82 80.4677 155.082 80.6771C155.082 80.6771 159.808 80.9969 162.417 79.3659C162.417 79.3659 164.778 78.0562 164.531 76.3563C163.73 76.4874 160.667 76.9825 157.555 77.3269Z" fill="#655752"/>
<path d="M155.403 77.0472C155.383 76.9869 155.355 76.9326 155.326 76.8923C154.507 77.9596 152.888 80.391 154.976 80.6674C154.958 80.5931 154.893 80.5045 154.797 80.3755C153.638 78.9764 155.403 77.0472 155.403 77.0472Z" fill="#655752"/>
<path d="M164.173 74.9114C164.173 74.9114 157.707 77.313 155.932 77.0046C155.618 76.9504 155.437 76.7226 155.357 76.3953C155.203 76.9456 155.448 77.5628 157.562 77.32C161.184 76.9228 164.751 76.3167 164.751 76.3167C164.751 76.3167 167.996 75.9491 169.069 73.3717L168.973 73.3931L164.173 74.9114Z" fill="#E6EAEE"/>
<path d="M164.173 74.9114C164.173 74.9114 157.707 77.313 155.932 77.0046C155.618 76.9504 155.437 76.7226 155.357 76.3953C155.203 76.9456 155.448 77.5628 157.562 77.32C161.184 76.9228 164.751 76.3167 164.751 76.3167C164.751 76.3167 167.996 75.9491 169.069 73.3717L168.973 73.3931L164.173 74.9114Z" fill="#655752"/>
<path d="M166.682 72.9434C165.796 72.9255 164.677 73.1668 164.677 73.1668C161.324 73.9267 158.715 74.0238 158.715 74.0238C157.05 74.083 156.549 72.596 156.394 71.7629C155.785 73.2486 154.482 76.7809 155.886 77.0267C157.66 77.3351 164.126 74.9336 164.126 74.9336L168.89 73.417C168.866 73.3848 168.857 73.3547 168.825 73.3284C168.845 73.3385 168.288 72.8898 166.682 72.9434Z" fill="#655752"/>
<path d="M155.284 76.2122C155.835 76.5526 156.174 76.7253 155.857 76.4485C155.128 75.8162 156.134 73.0639 156.499 72.158C156.456 72.0154 156.433 71.8829 156.408 71.7645C155.959 72.8442 155.147 75.0163 155.284 76.2122Z" fill="#363130"/>
<path d="M156.63 72.4862C156.63 72.4862 156.213 75.4629 158.529 74.8846C160.839 74.2983 162.743 73.6873 164.028 73.4852L163.113 73.2767L156.63 72.4862Z" fill="#363130"/>
<path d="M156.408 71.7638C156.563 72.5968 157.057 74.0898 158.729 74.0246C158.729 74.0246 161.338 73.9275 164.692 73.1676C164.692 73.1676 165.802 72.9323 166.696 72.9442C167.741 72.907 168.331 73.0813 168.627 73.2116L168.732 73.1842C170.154 72.4437 171.295 71.2382 171.219 70.0226C171.143 68.8071 165.674 70.72 162.974 71.807C160.275 72.8939 158.23 73.3336 156.809 72.1032C156.644 71.9638 156.516 71.8086 156.433 71.6456C156.421 71.6796 156.417 71.7077 156.435 71.7318C156.423 71.7157 156.421 71.6796 156.433 71.6456L156.408 71.7638Z" fill="#E6EAEE"/>
<path d="M156.408 71.7638C156.563 72.5968 157.057 74.0898 158.729 74.0246C158.729 74.0246 161.338 73.9275 164.692 73.1676C164.692 73.1676 165.802 72.9323 166.696 72.9442C167.741 72.907 168.331 73.0813 168.627 73.2116L168.732 73.1842C170.154 72.4437 171.295 71.2382 171.219 70.0226C171.143 68.8071 165.674 70.72 162.974 71.807C160.275 72.8939 158.23 73.3336 156.809 72.1032C156.644 71.9638 156.516 71.8086 156.433 71.6456C156.421 71.6796 156.417 71.7077 156.435 71.7318C156.423 71.7157 156.421 71.6796 156.433 71.6456L156.408 71.7638Z" fill="#655752"/>
<path d="M156.428 71.8758C156.42 71.8316 156.41 71.8015 156.408 71.7654L156.417 71.6592C156.508 71.8162 156.635 71.9714 156.793 72.1168C158.214 73.3472 160.258 72.9075 162.958 71.8205C163.98 71.4142 165.393 70.8802 166.769 70.4481C166.164 70.0852 164.789 70.2667 164.789 70.2667C164.789 70.2667 161.797 70.9587 158.98 70.9101C156.164 70.8615 156.59 67.9651 156.59 67.9651C156.59 67.9651 155.653 70.4913 156.428 71.8758Z" fill="#F2F6FB"/>
<path d="M156.428 71.8758C156.42 71.8316 156.41 71.8015 156.408 71.7654L156.417 71.6592C156.508 71.8162 156.635 71.9714 156.793 72.1168C158.214 73.3472 160.258 72.9075 162.958 71.8205C163.98 71.4142 165.393 70.8802 166.769 70.4481C166.164 70.0852 164.789 70.2667 164.789 70.2667C164.789 70.2667 161.797 70.9587 158.98 70.9101C156.164 70.8615 156.59 67.9651 156.59 67.9651C156.59 67.9651 155.653 70.4913 156.428 71.8758Z" fill="#655752"/>
<path d="M158.981 70.8947C161.798 70.9433 164.79 70.2512 164.79 70.2512C164.79 70.2512 166.165 70.0698 166.77 70.4326C167.666 70.1438 168.548 69.903 169.271 69.7674C169.289 69.7414 169.307 69.7155 169.317 69.6955C171.605 66.3823 162.492 69.3699 162.492 69.3699C158.749 70.5302 157.058 69.4244 156.65 69.0909C156.823 69.898 157.366 70.868 158.981 70.8947Z" fill="#E6EAEE"/>
<path d="M158.981 70.8947C161.798 70.9433 164.79 70.2512 164.79 70.2512C164.79 70.2512 166.165 70.0698 166.77 70.4326C167.666 70.1438 168.548 69.903 169.271 69.7674C169.289 69.7414 169.307 69.7155 169.317 69.6955C171.605 66.3823 162.492 69.3699 162.492 69.3699C158.749 70.5302 157.058 69.4244 156.65 69.0909C156.823 69.898 157.366 70.868 158.981 70.8947Z" fill="#655752"/>
<path d="M165.521 70.2123C165.529 70.2064 165.529 70.2064 165.521 70.2123C165.435 70.2138 165.348 70.2152 165.276 70.2188C165.35 70.2012 165.429 70.2057 165.521 70.2123Z" fill="#CDCCD7"/>
<path d="M164.791 70.252C164.791 70.252 164.982 70.2231 165.255 70.2209C164.982 70.2231 164.791 70.252 164.791 70.252Z" fill="#CDCCD7"/>
<path d="M165.358 68.5609C165.35 68.5664 165.345 68.559 165.337 68.5645C165.343 68.5719 165.35 68.5664 165.358 68.5609Z" fill="#CDCCD7"/>
<path d="M159.7 68.8964C157.739 69.1622 156.892 68.7917 156.536 68.3442C156.526 68.5507 156.532 68.8956 156.606 69.265C157.015 69.5985 158.714 70.6984 162.449 69.544C162.449 69.544 163.791 69.0997 165.313 68.7469C164.484 68.3504 162.64 68.5047 159.7 68.8964ZM156.304 67.5427C156.305 67.4926 156.319 67.4446 156.328 67.3885C156.328 67.3885 156.311 67.4505 156.304 67.5427ZM156.304 67.5427C156.208 68.1877 156.225 68.649 156.309 68.9984C156.383 68.6941 156.463 68.448 156.508 68.2899C156.305 68.0159 156.285 67.719 156.304 67.5427Z" fill="#363130"/>
<path d="M159.814 69.0051C161.636 68.7544 163.035 68.6052 164.043 68.6199C163.767 67.6897 162.584 67.1186 160.27 68.3565C159.046 69.0121 158.008 69.0072 157.459 68.9395C157.973 69.0952 158.725 69.1503 159.814 69.0051Z" fill="#F2F6FB"/>
<path d="M159.814 69.0051C161.636 68.7544 163.035 68.6052 164.043 68.6199C163.767 67.6897 162.584 67.1186 160.27 68.3565C159.046 69.0121 158.008 69.0072 157.459 68.9395C157.973 69.0952 158.725 69.1503 159.814 69.0051Z" fill="#363130"/>
<path d="M167.827 70.7486C162.476 73.5103 159.235 73.9 157.97 73.9258C158.196 73.9954 158.44 74.0392 158.729 74.025C158.729 74.025 161.338 73.9279 164.692 73.168C164.692 73.168 165.802 72.9327 166.696 72.9446C167.741 72.9074 168.331 73.0817 168.627 73.212L168.732 73.1846C170.108 72.4658 171.22 71.3062 171.224 70.1313C170.255 69.5636 167.827 70.7486 167.827 70.7486Z" fill="#363130"/>
<path d="M155.83 77.2552C155.765 78.3134 155.963 80.2997 158.301 80.5777C159.693 80.4204 161.269 80.09 162.431 79.3678C162.431 79.3678 164.792 78.058 164.544 76.3582C163.735 76.4952 160.672 76.9903 157.56 77.3347C156.71 77.4154 156.17 77.3777 155.83 77.2552Z" fill="#363130"/>
<path d="M164.047 77.9595C163.867 78.1047 163.672 78.2618 163.452 78.4368C161.662 79.9107 158.7 80.3564 155.996 80.511C153.661 80.642 154.062 79.1108 154.219 78.6828C153.804 79.6384 153.768 80.5505 155.09 80.6695C155.09 80.6695 159.816 80.9893 162.425 79.3583C162.425 79.3583 163.418 78.8115 164.047 77.9595Z" fill="#363130"/>
<path d="M157.529 69.3023C156.701 69.0422 156.578 68.472 156.568 68.1551C156.559 68.3616 156.565 68.7065 156.638 69.0759C157.047 69.4094 158.746 70.5093 162.481 69.3549C162.481 69.3549 163.823 68.9106 165.346 68.5578C165.246 68.507 165.124 68.46 164.992 68.4331C163.959 68.6729 161.794 69.2522 161.193 69.4848C160.403 69.7824 158.7 69.6709 157.529 69.3023Z" fill="#63605F"/>
<path d="M164.551 76.6034C164.55 76.5171 164.546 76.4449 164.539 76.3507C163.73 76.4877 160.667 76.9828 157.555 77.3273C156.71 77.4159 156.157 77.3762 155.823 77.2617C155.831 77.2558 158.068 78.5437 164.551 76.6034Z" fill="#363130"/>
<path d="M168.845 73.3377C168.845 73.3377 168.297 72.883 166.688 72.9506C165.802 72.9327 164.684 73.174 164.684 73.174C161.501 73.8949 158.996 74.0147 158.749 74.0352C159.555 74.1126 161.508 73.8027 165.413 73.3331C165.413 73.3331 167.874 73.1709 168.338 73.613L168.903 73.4323C168.887 73.3941 168.863 73.3619 168.845 73.3377Z" fill="#363130"/>
<path d="M167.267 70.2791C166.964 69.7678 165.432 69.8039 164.602 70.031C163.968 70.2013 162.285 70.5731 161.263 70.793C163.211 70.6113 164.791 70.2528 164.791 70.2528C164.791 70.2528 166.166 70.0714 166.771 70.4342C166.938 70.3732 167.103 70.3261 167.267 70.2791Z" fill="#363130"/>
<path d="M165.521 70.2104C165.529 70.2044 165.529 70.2044 165.521 70.2104C165.435 70.2118 165.349 70.2133 165.276 70.2168C165.351 70.1992 165.429 70.2038 165.521 70.2104Z" fill="#F6CD83"/>
<path d="M164.791 70.252C164.791 70.252 164.982 70.2231 165.254 70.2209C164.982 70.2231 164.791 70.252 164.791 70.252Z" fill="#B0B4C3"/>
<path d="M165.346 74.5428C161.399 76.8266 156.182 77.4439 155.57 77.123C155.862 77.3315 156.454 77.4416 157.562 77.3206C161.184 76.9234 164.751 76.3173 164.751 76.3173C164.751 76.3173 167.995 75.9497 169.069 73.3723L168.973 73.3937L165.346 74.5428Z" fill="#CCD6E2"/>
<path d="M165.346 74.5428C161.399 76.8266 156.182 77.4439 155.57 77.123C155.862 77.3315 156.454 77.4416 157.562 77.3206C161.184 76.9234 164.751 76.3173 164.751 76.3173C164.751 76.3173 167.995 75.9497 169.069 73.3723L168.973 73.3937L165.346 74.5428Z" fill="#655752"/>
<path opacity="0.5" d="M165.147 68.4902C165.147 68.4902 165.155 68.4846 165.16 68.4922C165.155 68.4846 165.155 68.4846 165.147 68.4902Z" fill="#E4DECF"/>
<path d="M156.275 67.6728C156.275 67.6728 156.164 68.7026 156.342 68.808C156.342 68.808 156.048 71.968 156.766 72.8208L156.185 72.5403C156.185 72.5403 155.893 70.8482 156.026 68.9042L156.275 67.6728Z" fill="#363130"/>
<path d="M163.793 68.6836C163.793 68.6836 171.567 66.449 169.318 69.6964C169.318 69.6964 172.227 68.9416 170.921 71.1044L171.224 71.1425C171.224 71.1425 172.677 68.7581 170.214 69.2211C170.214 69.2211 170.585 66.5027 163.793 68.6836Z" fill="#363130"/>
<path opacity="0.41" d="M159.527 82.4375C159.527 82.4375 163.601 81.1691 166.088 78.581L179.376 98.9029C179.376 98.9029 177.422 101.37 176.45 101.067L159.527 82.4375Z" fill="#EEE5E2"/>
<path opacity="0.47" d="M153.449 81.5723L155.519 83.4947C155.519 83.4947 166.248 80.1467 172.951 70.1759L172.01 67.8419C172.01 67.8419 172.13 71.207 164.775 76.536C156.333 82.6559 154.157 81.8717 153.449 81.5723Z" fill="#EEE5E2"/>
<path opacity="0.6" d="M152.22 68.753L154.147 67.3281C154.147 67.3281 151.244 75.9967 157.093 79.2512L155.82 80.1932C155.828 80.1872 148.807 76.7145 152.22 68.753Z" fill="#EDF6FD"/>
<path d="M159.194 78.7679C159.194 78.7679 167.348 74.3324 170.838 69.6436L171.013 70.4367C171.021 70.4308 165.027 76.9096 159.194 78.7679Z" fill="#EEE5E2"/>
<path d="M250.78 23.2237L282.331 40.7748L259.803 73.6118C258.932 75.0527 252.237 74.5359 245.596 71.0928C238.955 67.6496 234.858 62.576 235.523 61.0333L250.78 23.2237Z" fill="#FBFBFB"/>
<path opacity="0.25" d="M256.753 27.3236L237.86 68.613L233.382 62.157L249.641 20.5474L256.753 27.3236Z" fill="#D4CBBF"/>
<path d="M282.117 40.1051C279.802 40.7628 277.357 40.7703 273.894 39.617C270.724 38.5684 266.942 37.0389 264.065 35.3512C256.604 30.9535 250.185 25.3675 250.544 23.3984C255.143 25.4394 259.703 27.6481 264.165 29.9751C267.633 31.7846 271.263 33.2074 274.756 34.9872C277.584 36.4333 281.673 36.8845 282.117 40.1051Z" fill="#676768"/>
<path d="M249.569 18.9711L251.616 17.0464L256.661 19.5286C260.492 20.3971 265.416 22.2665 270.542 24.9274C276.173 27.849 280.873 31.1174 283.773 33.9083L287.257 35.3497L286.84 38.5442C286.865 38.8865 286.591 39.2998 286.457 39.5691C285.063 42.2499 275.808 39.9784 265.522 34.6487C255.236 29.3191 247.678 22.6324 249.072 19.9515C249.14 19.7375 249.378 19.1032 249.569 18.9711Z" fill="#454449"/>
<path opacity="0.16" d="M283.926 36.0343C284.142 36.8464 283.737 38.114 283.546 38.848C283.343 39.6322 282.977 40.3601 282.741 41.1365C281.021 40.9964 279.197 40.2475 277.459 39.9614C276.948 39.8762 276.104 39.9251 275.644 39.6219C276.374 37.953 277.058 36.2554 277.587 34.539C277.635 34.4088 277.639 34.0911 277.781 34.0181C278.332 33.7057 280.727 34.961 281.341 35.212C282.224 35.5973 283.256 35.9471 283.926 36.0343Z" fill="#CFBDB7"/>
<path opacity="0.16" d="M275.28 32.6834C275.157 33.5042 274.471 34.9887 274.089 35.8547C273.679 36.7671 273.202 37.6637 272.776 38.5721C271.618 38.901 270.594 38.5886 269.476 38.7498C269.146 38.796 268.548 39.0798 268.332 38.8695C269.392 36.8535 270.418 34.8295 271.374 32.8065C271.447 32.6467 271.559 32.3192 271.679 32.188C272.166 31.7009 273.437 32.3903 273.765 32.503C274.239 32.668 274.855 32.7601 275.28 32.6834Z" fill="#CFBDB7"/>
<path d="M287.085 36.1874C288.404 33.6442 281.424 27.4108 271.496 22.2646C261.568 17.1185 252.451 15.0083 251.133 17.5515C249.814 20.0946 256.794 26.328 266.722 31.4742C276.65 36.6204 285.767 38.7305 287.085 36.1874Z" fill="#676768"/>
<path d="M285.278 34.2266C286.61 31.6581 280.517 25.8586 271.671 21.2731C262.824 16.6875 254.574 15.0523 253.242 17.6208C251.911 20.1893 258.003 25.9888 266.849 30.5744C275.696 35.1599 283.947 36.7951 285.278 34.2266Z" fill="#2E2D32"/>
<path d="M254.242 15.8969L256.518 12.9284L260.526 15.0776C263.943 15.6004 268.268 17.0809 272.687 19.3625C277.544 21.889 281.516 24.862 283.872 27.5598L286.937 29.2032L286.199 32.1805C286.187 32.5317 285.893 33.0288 285.734 33.3276C284.173 36.3409 275.924 34.9086 267.044 30.3C258.164 25.6913 252.117 19.8037 253.677 16.7904C253.787 16.5507 254.06 16.0665 254.242 15.8969Z" fill="#454449"/>
<path opacity="0.16" d="M283.815 29.8304C283.914 30.6858 283.427 32.0757 283.166 32.8816C282.889 33.7546 282.486 34.5625 282.18 35.4108C280.613 35.4484 279.021 34.8427 277.456 34.7214C277.004 34.6857 276.229 34.8214 275.832 34.5508C276.677 32.6964 277.475 30.8134 278.152 28.9195C278.204 28.7725 278.246 28.446 278.378 28.3355C278.929 27.952 280.996 29.0237 281.512 29.2341C282.294 29.5247 283.204 29.7925 283.815 29.8304Z" fill="#CFBDB7"/>
<path opacity="0.16" d="M276.23 27.1555C276.037 28.0483 275.236 29.7182 274.798 30.677C274.326 31.6989 273.788 32.7049 273.3 33.7228C272.195 34.2057 271.293 33.9753 270.252 34.2608C269.948 34.3484 269.368 34.7072 269.181 34.5216C270.372 32.2531 271.528 29.9766 272.61 27.7178C272.687 27.5413 272.828 27.1674 272.952 27.0195C273.458 26.4485 274.536 27.0569 274.838 27.1281C275.266 27.2645 275.827 27.2905 276.23 27.1555Z" fill="#CFBDB7"/>
<path d="M286.939 29.1882C288.13 26.8901 282.226 21.466 273.751 17.0731C265.276 12.6803 257.44 10.9821 256.249 13.2803C255.058 15.5784 260.962 21.0025 269.437 25.3954C277.912 29.7882 285.747 31.4863 286.939 29.1882Z" fill="#2E2D32"/>
<path d="M284.059 27.1055C284.979 25.3313 280.443 21.1555 273.929 17.7787C267.414 14.402 261.388 13.1029 260.468 14.8772C259.548 16.6515 264.084 20.8272 270.598 24.204C277.112 27.5808 283.139 28.8798 284.059 27.1055Z" fill="#1C1B1F"/>
<path d="M260.858 15.9207C260.116 17.3391 264.42 21.0098 270.446 24.1309C276.473 27.2521 281.95 28.6503 282.675 27.228C283.417 25.8096 279.113 22.1389 273.087 19.0178C267.064 15.8799 261.583 14.4984 260.858 15.9207Z" fill="#454449"/>
<path d="M267.34 52.7017C268.827 46.9825 265.396 41.1407 259.676 39.6536C253.957 38.1665 248.115 41.5973 246.628 47.3164C245.141 53.0356 248.572 58.8774 254.291 60.3645C260.011 61.8516 265.853 58.4209 267.34 52.7017Z" fill="#048452"/>
<path opacity="0.47" d="M312.991 84.819C311.348 83.7339 310.093 82.1926 309.482 80.2944C307.845 75.2098 311.43 69.5127 317.493 67.5606C323.556 65.6086 329.791 68.1436 331.429 73.2282C332.04 75.1264 331.92 77.1105 331.219 78.9502L312.991 84.819Z" fill="#DCF9FF"/>
<path opacity="0.47" d="M322.254 82.4137C328.416 80.4297 333.025 77.6203 332.548 76.1386C332.071 74.657 326.689 75.0643 320.527 77.0483C314.365 79.0323 309.756 81.8417 310.233 83.3233C310.71 84.805 316.092 84.3977 322.254 82.4137Z" fill="#EEE5E2"/>
<path opacity="0.73" d="M321.955 81.7185C327.743 79.855 332.137 77.4208 331.771 76.2815C331.404 75.1422 326.415 75.7293 320.627 77.5927C314.839 79.4562 310.445 81.8904 310.812 83.0297C311.179 84.169 316.168 83.5819 321.955 81.7185Z" fill="#EEE5E2"/>
<g opacity="0.25">
<path d="M310.831 83.023C310.869 83.1392 310.948 83.2205 311.044 83.2858C311.14 83.3512 311.252 83.4006 311.371 83.4372C311.595 83.5038 311.833 83.5449 312.074 83.5634C312.557 83.6006 313.033 83.5861 313.51 83.5396C314.466 83.456 315.414 83.2791 316.356 83.0829C318.233 82.6709 320.078 82.1622 321.915 81.5922C322.829 81.3087 323.746 81.0028 324.647 80.6806C325.548 80.3584 326.446 79.9944 327.322 79.5947C328.198 79.1951 329.052 78.7598 329.872 78.2501C330.283 78.0002 330.675 77.7243 331.032 77.4062C331.207 77.2535 331.377 77.0815 331.52 76.8963C331.585 76.8005 331.651 76.7046 331.681 76.5987C331.711 76.4929 331.731 76.3901 331.69 76.2964C331.659 76.1995 331.583 76.128 331.5 76.0692C331.407 76.0135 331.308 75.9707 331.189 75.9341C330.964 75.8674 330.73 75.8361 330.501 75.8241C330.032 75.7935 329.556 75.8079 329.076 75.8448C328.129 75.9252 327.175 76.0828 326.24 76.2663C325.295 76.4528 324.363 76.6782 323.44 76.9326C322.517 77.1869 321.597 77.451 320.677 77.7473C319.764 78.0307 318.853 78.356 317.955 78.6879C317.057 79.0197 316.165 79.371 315.283 79.7513C314.401 80.1315 313.54 80.5475 312.705 81.0409C312.291 81.2811 311.886 81.5505 311.525 81.8589C311.34 82.0147 311.168 82.177 311.028 82.3718C310.953 82.4708 310.897 82.5636 310.848 82.6757C310.808 82.7847 310.794 82.9068 310.831 83.023ZM310.802 83.0324C310.765 82.9162 310.776 82.7843 310.825 82.6722C310.865 82.5632 310.937 82.4546 311.002 82.3587C311.143 82.1639 311.325 81.9984 311.506 81.833C311.873 81.5118 312.269 81.2455 312.674 80.9762C313.49 80.4568 314.338 80.0022 315.207 79.5832C316.944 78.7354 318.753 78.0461 320.58 77.447C322.421 76.8545 324.292 76.3589 326.185 75.9954C327.132 75.8185 328.093 75.6803 329.065 75.6131C329.548 75.5858 330.037 75.578 330.523 75.6248C330.767 75.653 331.014 75.691 331.252 75.7642C331.37 75.8008 331.495 75.8568 331.604 75.9287C331.713 76.0006 331.814 76.1175 331.858 76.2531C331.902 76.3886 331.874 76.5364 331.828 76.6582C331.782 76.78 331.71 76.8886 331.635 76.9876C331.485 77.1856 331.303 77.351 331.118 77.5068C330.933 77.6625 330.735 77.8118 330.531 77.9416C330.33 78.0811 330.126 78.2109 329.922 78.3408C329.1 78.8407 328.233 79.2694 327.36 79.6788C325.614 80.4975 323.824 81.2127 321.99 81.8246C320.156 82.4365 318.285 82.9321 316.389 83.2537C315.438 83.421 314.485 83.5463 313.519 83.6008C313.036 83.628 312.556 83.6327 312.071 83.5859C311.83 83.5674 311.592 83.5263 311.355 83.4531C311.236 83.4165 311.124 83.3671 311.028 83.3017C310.926 83.2492 310.84 83.1486 310.802 83.0324Z" fill="#FFF9F7"/>
</g>
<path opacity="0.47" d="M331.812 80.0949L337.625 107.778C337.625 107.778 331.843 113.391 324.197 112.155L313.021 85.6426C313.021 85.6426 321.438 86.3852 331.812 80.0949Z" fill="#EEE5E2"/>
<path d="M330.541 79.4359L336.817 107.558C336.817 107.558 330.538 112.626 325.113 111.048L312.964 84.0371L330.541 79.4359Z" fill="#363130"/>
<path d="M333.575 87.6057C333.575 87.6057 325.836 93.7972 317.133 92.4872L311.353 82.4766L331.102 77.08L333.575 87.6057Z" fill="#6A983C"/>
<path d="M310.403 62.7038L319.492 74.699L318.309 76.4373L309.135 63.9778L310.403 62.7038Z" fill="#007049"/>
<path d="M330.645 77.168C331.231 77.396 331.957 77.8572 331.289 78.6386C330.459 79.6115 328.756 80.2666 327.26 80.5665C329.615 79.0173 330.134 77.7387 330.645 77.168Z" fill="#EBD5AC"/>
<path d="M326.617 77.0116C327.649 75.8671 327.758 75.244 327.536 74.9199C328.901 74.876 332.009 74.9658 330.843 76.9552C330.843 76.9552 328.31 81.0414 325.421 82.228C325.421 82.228 322.944 83.3996 321.689 82.1898C322.271 81.6069 324.492 79.3741 326.617 77.0116Z" fill="#FCF4E4"/>
<path d="M327.661 75.0713C327.623 75.0194 327.594 74.9644 327.579 74.916C328.944 74.8721 331.906 74.9765 330.899 76.8613C330.848 76.8029 330.814 76.6963 330.764 76.5414C330.296 74.7572 327.661 75.0713 327.661 75.0713Z" fill="#EBD5AC"/>
<path d="M320.71 81.0401C320.71 81.0401 326.517 77.1291 327.312 75.4834C327.454 75.192 327.373 74.908 327.15 74.6483C327.695 74.847 328.06 75.4138 326.608 77.0142C324.137 79.7657 321.527 82.3484 321.527 82.3484C321.527 82.3484 319.304 84.8064 316.543 84.1668L316.618 84.1L320.71 81.0401Z" fill="#E6EAEE"/>
<path d="M320.71 81.0401C320.71 81.0401 326.517 77.1291 327.312 75.4834C327.454 75.192 327.373 74.908 327.15 74.6483C327.695 74.847 328.06 75.4138 326.608 77.0142C324.137 79.7657 321.527 82.3484 321.527 82.3484C321.527 82.3484 319.304 84.8064 316.543 84.1668L316.618 84.1L320.71 81.0401Z" fill="#FBEAC5"/>
<path d="M316.648 83.9616C316.661 84.0003 316.673 84.039 316.683 84.0681L320.752 81.037C320.752 81.037 326.558 77.1259 327.354 75.4802C327.982 74.1771 324.295 73.1515 322.713 72.7845C323.308 73.4052 324.247 74.6954 323.204 76.0361C323.204 76.0361 321.58 78.1303 318.969 80.4459C318.969 80.4459 318.118 81.2223 317.599 81.9667C316.598 83.2403 316.648 83.9616 316.648 83.9616Z" fill="#FCF4E4"/>
<path d="M327.043 74.4801C326.998 75.136 326.939 75.5183 326.899 75.0932C326.809 74.1173 323.944 73.3189 322.981 73.0838C322.889 72.9638 322.793 72.8663 322.71 72.7754C323.866 73.0446 326.138 73.66 327.043 74.4801Z" fill="#EBD5AC"/>
<path d="M323.176 73.3934C323.176 73.3934 325.878 74.8111 324.031 76.3785C322.18 77.9361 320.55 79.1453 319.623 80.085L319.992 79.2072L323.176 73.3934Z" fill="#EBD5AC"/>
<path d="M322.71 72.775C323.305 73.3956 324.244 74.6859 323.201 76.0266C323.201 76.0266 321.577 78.1207 318.966 80.4364C318.966 80.4364 318.115 81.2128 317.596 81.9572C316.947 82.7968 316.741 83.3867 316.674 83.7078L316.589 83.7777C315.137 84.5125 313.468 84.74 312.511 83.9579C311.553 83.1759 316.366 79.7984 318.86 78.2152C321.354 76.6319 322.926 75.2065 322.753 73.3063C322.736 73.0873 322.683 72.8905 322.598 72.7256C322.633 72.7356 322.659 72.7487 322.668 72.7778C322.662 72.7584 322.633 72.7356 322.598 72.7256L322.71 72.775Z" fill="#E6EAEE"/>
<path d="M322.71 72.775C323.305 73.3956 324.244 74.6859 323.201 76.0266C323.201 76.0266 321.577 78.1207 318.966 80.4364C318.966 80.4364 318.115 81.2128 317.596 81.9572C316.947 82.7968 316.741 83.3867 316.674 83.7078L316.589 83.7777C315.137 84.5125 313.468 84.74 312.511 83.9579C311.553 83.1759 316.366 79.7984 318.86 78.2152C321.354 76.6319 322.926 75.2065 322.753 73.3063C322.736 73.0873 322.683 72.8905 322.598 72.7256C322.633 72.7356 322.659 72.7487 322.668 72.7778C322.662 72.7584 322.633 72.7356 322.598 72.7256L322.71 72.775Z" fill="#FCF4E4"/>
<path d="M322.789 72.8557C322.758 72.8232 322.739 72.7973 322.71 72.7745L322.617 72.7188C322.693 72.8869 322.745 73.0837 322.772 73.2996C322.946 75.1998 321.374 76.6252 318.88 78.2084C317.94 78.8101 316.664 79.6594 315.493 80.5387C315.552 79.825 316.515 78.7988 316.515 78.7988C316.515 78.7988 318.856 76.7409 320.483 74.3894C322.109 72.0379 319.469 70.6755 319.469 70.6755C319.469 70.6755 322.106 71.3976 322.789 72.8557Z" fill="#F2F6FB"/>
<path d="M322.789 72.8557C322.758 72.8232 322.739 72.7973 322.71 72.7745L322.617 72.7188C322.693 72.8869 322.745 73.0837 322.772 73.2996C322.946 75.1998 321.374 76.6252 318.88 78.2084C317.94 78.8101 316.664 79.6594 315.493 80.5387C315.552 79.825 316.515 78.7988 316.515 78.7988C316.515 78.7988 318.856 76.7409 320.483 74.3894C322.109 72.0379 319.469 70.6755 319.469 70.6755C319.469 70.6755 322.106 71.3976 322.789 72.8557Z" fill="#FCF4E4"/>
<path d="M320.47 74.3827C318.843 76.7342 316.502 78.7921 316.502 78.7921C316.502 78.7921 315.539 79.8183 315.48 80.532C314.712 81.1001 313.991 81.6847 313.452 82.2005C313.42 82.2001 313.387 82.1998 313.365 82.1963C309.279 82.1223 317.135 76.3757 317.135 76.3757C320.306 73.9756 320.395 71.9269 320.362 71.3925C320.925 72.0128 321.404 73.0345 320.47 74.3827Z" fill="#E6EAEE"/>
<path d="M320.47 74.3827C318.843 76.7342 316.502 78.7921 316.502 78.7921C316.502 78.7921 315.539 79.8183 315.48 80.532C314.712 81.1001 313.991 81.6847 313.452 82.2005C313.42 82.2001 313.387 82.1998 313.365 82.1963C309.279 82.1223 317.135 76.3757 317.135 76.3757C320.306 73.9756 320.395 71.9269 320.362 71.3925C320.925 72.0128 321.404 73.0345 320.47 74.3827Z" fill="#FCF4E4"/>
<path d="M316.027 79.3719C316.079 79.3017 316.131 79.2314 316.177 79.174C316.131 79.2314 316.088 79.2985 316.027 79.3719Z" fill="#CDCCD7"/>
<path d="M316.502 78.7924C316.502 78.7924 316.366 78.9326 316.203 79.1562C316.366 78.9326 316.502 78.7924 316.502 78.7924Z" fill="#CDCCD7"/>
<path d="M314.773 78.2695C314.783 78.2664 314.78 78.2566 314.79 78.2535C314.78 78.2566 314.78 78.2566 314.773 78.2695Z" fill="#CDCCD7"/>
<path d="M314.773 78.2703C315.965 77.2239 317.126 76.3799 317.126 76.3799C320.297 73.9799 320.386 71.9311 320.353 71.3967C320.092 71.1173 319.811 70.9085 319.635 70.794C319.793 71.3523 319.597 72.2705 318.218 73.7301C316.159 75.9002 314.941 77.3292 314.773 78.2703ZM318.973 70.0343C319.025 70.0606 319.073 70.0772 319.114 70.1066C319.034 70.0575 318.973 70.0343 318.973 70.0343ZM319.62 70.7134C319.774 70.7601 320.027 70.8495 320.322 70.9684C320.083 70.6925 319.703 70.4086 319.124 70.1034C319.271 70.195 319.504 70.3873 319.62 70.7134Z" fill="#FCF4E4"/>
<path d="M318.224 73.7167C316.939 75.071 315.989 76.136 315.404 76.9762C314.801 76.1978 315.03 74.8841 317.42 73.7085C318.684 73.0875 319.295 72.2283 319.564 71.7355C319.385 72.2421 318.986 72.8944 318.224 73.7167Z" fill="#F2F6FB"/>
<path d="M318.224 73.7167C316.939 75.071 315.989 76.136 315.404 76.9762C314.801 76.1978 315.03 74.8841 317.42 73.7085C318.684 73.0875 319.295 72.2283 319.564 71.7355C319.385 72.2421 318.986 72.8944 318.224 73.7167Z" fill="#E8DBC0"/>
<path d="M315.116 81.5899C320.56 78.8109 322.799 76.3692 323.568 75.341C323.492 75.5686 323.384 75.796 323.201 76.0258C323.201 76.0258 321.577 78.1199 318.966 80.4356C318.966 80.4356 318.115 81.212 317.596 81.9564C316.947 82.7959 316.741 83.3859 316.674 83.7069L316.589 83.7769C315.182 84.4864 313.568 84.7176 312.597 84.0255C312.702 82.8908 315.116 81.5899 315.116 81.5899Z" fill="#F8E8CA"/>
<path d="M327.579 75.5476C328.49 76.12 330.011 77.458 328.857 79.5505C327.903 80.6058 326.698 81.71 325.415 82.2406C325.415 82.2406 322.938 83.4122 321.683 82.2023C322.275 81.6164 324.495 79.3836 326.621 77.0211C327.19 76.3673 327.478 75.9005 327.579 75.5476Z" fill="#F8E8CA"/>
<path d="M323.299 82.7389C323.525 82.6768 323.77 82.6085 324.044 82.5309C326.319 81.9268 328.439 79.7477 330.167 77.6096C331.656 75.7618 330.156 75.1866 329.71 75.0629C330.744 75.2859 331.518 75.7958 330.833 76.9568C330.833 76.9568 328.301 81.0429 325.412 82.2296C325.412 82.2296 324.374 82.7241 323.299 82.7389Z" fill="#F8E8CA"/>
<path d="M320.019 72.251C320.294 71.414 319.897 70.9756 319.641 70.7799C319.817 70.8943 320.098 71.1031 320.359 71.3825C320.392 71.917 320.294 73.9688 317.132 76.3657C317.132 76.3657 315.971 77.2097 314.78 78.2561C314.797 78.1437 314.83 78.0153 314.886 77.8904C315.695 77.1812 317.454 75.7384 318.001 75.3804C318.714 74.9051 319.627 73.4247 320.019 72.251Z" fill="white"/>
<path d="M321.881 82.3524C321.811 82.3002 321.753 82.2546 321.68 82.1927C322.271 81.6067 324.492 79.3739 326.618 77.0114C327.19 76.3673 327.485 75.8877 327.588 75.5445C327.579 75.5476 327.317 78.1544 321.881 82.3524Z" fill="#EBD5AC"/>
<path d="M316.649 83.962C316.649 83.962 316.598 83.2407 317.606 81.9544C318.115 81.2131 318.976 80.4336 318.976 80.4336C321.454 78.2356 323.035 76.2408 323.198 76.0494C322.785 76.7595 321.374 78.1865 318.676 81.1287C318.676 81.1287 317.086 83.0623 317.176 83.7068L316.693 84.0654C316.671 84.0298 316.661 84.0008 316.649 83.962Z" fill="#E8DBC0"/>
<path d="M315.059 80.8509C314.817 80.2982 315.753 79.0561 316.431 78.5064C316.947 78.0837 318.25 76.9162 319.036 76.2035C317.733 77.7025 316.502 78.7935 316.502 78.7935C316.502 78.7935 315.539 79.8197 315.48 80.5334C315.335 80.6445 315.195 80.7429 315.059 80.8509Z" fill="white"/>
<path d="M316.027 79.3739C316.079 79.3036 316.131 79.2334 316.177 79.1759C316.131 79.2334 316.088 79.3005 316.027 79.3739Z" fill="#F6CD83"/>
<path d="M316.502 78.7924C316.502 78.7924 316.365 78.9326 316.202 79.1562C316.365 78.9326 316.502 78.7924 316.502 78.7924Z" fill="#E8DBC0"/>
<path d="M319.711 81.7891C323.93 79.8857 327.526 75.9488 327.623 75.2548C327.623 75.6183 327.363 76.1723 326.608 77.014C324.137 79.7655 321.527 82.3483 321.527 82.3483C321.527 82.3483 319.304 84.8063 316.543 84.1667L316.618 84.0999L319.711 81.7891Z" fill="#CCD6E2"/>
<path d="M319.711 81.7891C323.93 79.8857 327.526 75.9488 327.623 75.2548C327.623 75.6183 327.363 76.1723 326.608 77.014C324.137 79.7655 321.527 82.3483 321.527 82.3483C321.527 82.3483 319.304 84.8063 316.543 84.1667L316.618 84.0999L319.711 81.7891Z" fill="#EBD5AC"/>
<path opacity="0.5" d="M314.841 78.0453C314.841 78.0453 314.83 78.0488 314.834 78.0599C314.834 78.0599 314.83 78.0488 314.841 78.0453C314.841 78.0453 314.83 78.0488 314.841 78.0453Z" fill="#E4DECF"/>
<path d="M319.415 70.2441C319.415 70.2441 320.33 70.7619 320.312 70.9709C320.312 70.9709 323.091 72.5985 323.37 73.6954L323.483 73.0498C323.483 73.0498 322.26 71.8081 320.578 70.7677L319.415 70.2441Z" fill="#EBD5AC"/>
<path d="M315.8 77.0425C315.8 77.0425 309.357 82.1312 313.365 82.198C313.365 82.198 311.022 84.1496 313.578 84.3528L313.431 84.6248C313.431 84.6248 310.604 84.4124 312.444 82.6551C312.444 82.6551 309.986 81.3622 315.8 77.0425Z" fill="white"/>
<path opacity="0.41" d="M329.669 81.673C329.669 81.673 326.212 84.2824 322.606 84.8021L331.502 107.784C331.502 107.784 334.692 107.633 335.017 106.652L329.669 81.673Z" fill="#EEE5E2"/>
<path opacity="0.47" d="M332.548 76.1387L332.908 78.9836C332.908 78.9836 323.799 85.85 311.61 85.4773L310.242 83.3203C310.242 83.3203 312.946 85.4105 321.693 82.4981C331.735 79.1582 332.376 76.8995 332.548 76.1387Z" fill="#EEE5E2"/>
<path opacity="0.8" d="M322.703 67.5399L320.388 68.2852C320.388 68.2852 329.254 71.0209 328.476 77.77L330.007 77.2773C329.997 77.2804 331.287 69.4362 322.703 67.5399Z" fill="#EDF6FD"/>
<path d="M326.837 79.2174C326.837 79.2174 318.355 83.3166 312.423 83.4199L312.974 84.0337C312.964 84.0368 321.853 82.9278 326.837 79.2174Z" fill="#EEE5E2"/>
<path d="M247.431 106.057C242.254 99.5785 233.628 98.5823 231.892 98.4635C230.162 98.2849 221.372 97.7863 215.167 103.288C213.637 104.631 213.769 106.96 216.041 107.486C216.467 108.651 217.502 110.274 218.861 110.391L230.781 111.414L242.581 112.427C243.941 112.543 245.251 111.121 245.855 110.044C248.185 109.898 248.71 107.641 247.431 106.057Z" fill="#EFA765"/>
<path d="M231.188 106.664L216.042 105.364C215.946 105.612 215.892 105.893 215.867 106.177C215.717 107.925 217.025 110.219 218.862 110.376L230.782 111.399L231.188 106.664Z" fill="#DF9140"/>
<path d="M231.892 98.4635C230.162 98.285 221.372 97.7864 215.167 103.288C213.572 104.686 213.782 107.156 216.337 107.541C217.318 107.685 218.5 106.357 219.49 106.397C220.703 106.456 221.925 107.479 223.029 108.115C223.918 108.628 225.138 108.959 226.165 108.565C227.223 108.159 227.679 107.401 228.973 107.753C229.503 107.889 229.757 108.437 230.225 108.598C230.487 108.695 230.786 108.721 231.03 108.682L231.907 98.4648L231.892 98.4635Z" fill="#EFA765"/>
<path d="M231.188 106.663L246.2 107.952C246.253 108.212 246.259 108.499 246.234 108.782C246.084 110.53 244.405 112.568 242.567 112.41L230.767 111.397L231.173 106.662L231.188 106.663Z" fill="#DF9140"/>
<path d="M231.892 98.4632C233.628 98.5821 242.239 99.577 247.433 106.042C248.766 107.691 248.138 110.09 245.555 110.033C244.564 110.009 243.625 108.499 242.643 108.369C241.437 108.22 240.06 109.02 238.863 109.459C237.9 109.813 236.641 109.93 235.696 109.368C234.723 108.788 234.402 107.963 233.067 108.089C232.522 108.132 231.506 108.572 231.003 108.649C230.728 108.701 231.236 108.744 231.002 108.664L231.877 98.4619L231.892 98.4632Z" fill="#EFA765"/>
<path d="M227.635 100.206L225.71 104.405C225.302 105.303 226.768 105.925 227.191 105.028L229.118 100.815C229.526 99.9172 228.045 99.2935 227.635 100.206Z" fill="#C87217"/>
<path d="M224.188 99.6986L220.545 102.696C219.767 103.337 220.825 104.511 221.604 103.856L225.247 100.858C226.039 100.219 224.98 99.0593 224.188 99.6986Z" fill="#C87217"/>
<path d="M235.865 100.911L237.047 105.376C237.296 106.33 235.745 106.694 235.481 105.738L234.301 101.258C234.052 100.304 235.617 99.9415 235.865 100.911Z" fill="#C87217"/>
<path d="M239.334 100.997L242.413 104.572C243.069 105.335 241.827 106.312 241.171 105.534L238.093 101.959C237.436 101.195 238.677 100.234 239.334 100.997Z" fill="#C87217"/>
<path d="M230.804 100.974L230.41 105.559C230.326 106.545 231.939 106.684 232.024 105.698L232.417 101.112C232.502 100.126 230.889 99.9879 230.804 100.974Z" fill="#C87217"/>
<path d="M231.733 100.317C231.344 100.298 230.845 100.496 230.804 100.974L230.41 105.56C230.369 106.038 230.827 106.318 231.214 106.366L231.733 100.317Z" fill="#C87217"/>
<path d="M349.013 87.4741L285.994 104.102L307.219 184.543L370.237 167.916L349.013 87.4741Z" fill="#E6D1BC"/>
<path d="M354.91 78.7803L350.253 83.0212L348.787 86.6165L370.237 167.915L374.04 151.054L378.081 146.55L354.91 78.7803Z" fill="#C7AE96"/>
<mask id="mask0_4132_130860" style="mask-type:alpha" maskUnits="userSpaceOnUse" x="285" y="87" width="86" height="98">
<path d="M349.013 87.4741L285.994 104.102L307.219 184.543L370.237 167.916L349.013 87.4741Z" fill="#80A5E8"/>
</mask>
<g mask="url(#mask0_4132_130860)">
<path d="M298.525 81.908C292.952 83.3784 288.413 85.4224 287.461 85.8576C286.938 86.1061 286.552 85.6191 286.908 85.1571L296.228 73.2031L310.198 79.012C310.736 79.2381 310.631 79.8177 310.063 79.8941C309.02 79.9853 304.063 80.4466 298.525 81.908ZM304.748 141.614C307.603 142.812 310.309 146.514 315.229 145.216C320.148 143.918 320.675 139.362 322.568 136.913C322.26 136.442 321.621 136.39 321.621 136.39C321.621 136.39 318.715 137.929 313.658 139.264C308.601 140.598 305.314 140.692 305.314 140.692C305.314 140.692 304.784 141.053 304.748 141.614ZM308.883 131.765C307.988 132.001 306.45 133.143 306.244 133.896C306.369 134.231 306.545 134.479 306.858 134.691C308.935 134.474 310.12 135.339 312.425 134.731C314.73 134.123 315.334 132.786 317.248 131.95C317.416 131.611 317.447 131.308 317.39 130.955C316.839 130.401 314.938 130.167 314.043 130.403C313.114 130.648 312.941 131.246 311.565 131.609C310.189 131.972 309.743 131.538 308.814 131.783L308.883 131.765ZM430.812 131.427C418.637 136.885 411.109 126.763 398.216 130.754C399.733 133.297 401.097 135.955 402.341 138.718C413.109 135.877 420.06 144.789 431.641 140.151C431.83 143.377 431.872 146.604 431.768 149.834C422.552 153.259 416.771 144.737 405.895 147.864C406.723 150.443 407.374 152.774 407.941 155.2C417.237 152.637 422.534 160.44 431.344 157.711C431.042 161.029 430.55 164.324 429.97 167.568C423.481 168.912 419.119 161.304 409.59 164.518C409.834 166.698 410.035 168.853 410.132 171.036C418.406 168.227 422.281 175.522 428.499 174.543C427.696 177.773 426.762 180.927 425.715 184.074C421.629 183.091 417.008 178.128 410.105 179.581C410.221 177.232 410.269 174.901 410.204 172.562C404.149 174.16 396.651 173.636 389.517 169.887C388.561 158.731 369.154 152.259 367.093 144.449C364.86 135.985 367.917 130.136 364.903 118.714C362.66 110.215 356.108 102.118 348.255 97.4553C346.724 96.5344 345.231 95.8977 343.585 95.3753C351.156 100.922 357.741 108.164 360.301 117.867C363.142 128.636 359.617 135.638 362.241 145.582C364.864 155.525 381.651 160.297 384.348 170.515C385.41 174.541 385.181 178.833 382.958 187.7C391.21 192.479 400.651 193.815 406.121 192.372C407.91 191.9 408.737 191.129 408.984 189.555C409.217 188.206 409.406 186.831 409.561 185.465C415.541 184.145 419.641 188.804 423.472 190.075C422.318 192.956 421.044 195.795 419.673 198.549C416.827 196.687 412.831 193.398 408.197 193.406C407.84 195.12 407.404 196.817 406.926 198.489C410.904 198.507 414.439 201.585 417.054 203.545C415.502 206.31 413.854 208.99 412.119 211.619C410.084 209.764 407.104 207.532 404.218 206.638C403.616 208.121 402.98 209.614 402.291 211.047C404.805 211.929 407.378 214.011 409.145 215.826C407.059 218.658 404.842 221.414 402.521 224.051C398.096 213 380.452 209.302 381.153 194.948C380.395 197.651 379.515 201.011 380.441 204.52C382.974 214.12 395.197 219.028 398.538 228.341C396.741 230.176 394.916 231.909 393.014 233.625C389.876 223.266 376.051 214.658 373.781 206.057C371.258 196.492 381.263 183.51 378.277 172.191C375.29 160.871 358.737 156.848 356.113 146.904C353.49 136.961 358.141 129.624 354.773 116.86C352.313 107.536 345.378 99.2447 336.944 95.0298C335.458 94.2809 334.027 93.7385 332.426 93.3881C340.936 99.4231 346.547 105.487 349.361 116.153C352.52 128.126 347.22 136.628 350.325 148.395C353.421 160.127 369.344 162.881 372.231 173.823C375.118 184.764 364.306 197.479 367.266 208.696C369.962 218.915 384.32 226.056 387.697 238.156C385.442 239.929 383.099 241.651 380.696 243.279C378.943 230.64 362.461 221.446 359.828 211.468C356.941 200.527 368.189 187.512 365.085 175.745C361.971 163.944 346.56 162.158 343.374 150.082C340.178 137.97 346.983 129.035 343.452 115.651C340.701 105.226 333.106 97.2201 324.038 93.3932C323.873 93.3263 323.665 93.2341 323.465 93.1762C322.607 92.8507 322.22 93.6153 322.865 94.1075C329.915 99.3501 334.54 105.306 337.164 115.249C340.387 127.464 333.171 140.003 336.294 151.839C339.98 165.808 354.243 166.314 357.266 177.771C360.289 189.228 348.54 202.155 351.753 214.334C354.731 225.62 371.452 234.604 372.588 248.252C370.086 249.648 367.497 250.994 364.872 252.201C363.099 235.299 346.889 227.137 344.084 216.505C341.052 205.014 353.001 190.894 350.042 179.677C347.246 169.08 335.811 168.417 331.575 157.942C331.013 156.508 329.519 155.725 327.94 156.435C325.907 157.377 323.527 159.514 319.227 160.648C314.927 161.783 311.802 161.098 309.569 161.283C307.88 161.434 306.966 162.853 307.185 164.377C308.668 175.579 299.058 181.831 301.845 192.394C304.805 203.61 322.165 209.997 325.197 221.489C328.002 232.12 317.929 247.217 324.725 262.794C321.837 263.004 318.931 263.145 316.066 263.165C310.32 250.733 320.432 234.669 317.455 223.384C314.241 211.204 297.653 205.792 294.621 194.3C291.598 182.843 303.755 175.366 300.069 161.397C296.946 149.561 284.484 142.214 281.261 129.999C278.638 120.056 279.723 112.593 283.269 104.555C283.621 103.8 282.864 103.3 282.287 104.041C282.142 104.19 282.041 104.364 281.896 104.512C275.93 112.306 273.239 123.026 275.99 133.451C279.521 146.835 289.849 151.25 293.044 163.361C296.24 175.472 283.716 184.628 286.821 196.395C289.935 208.196 306.139 213.968 309.017 224.874C311.659 234.887 301.849 250.981 306.56 262.84C303.666 262.61 300.822 262.293 297.943 261.838C294.919 249.681 303.885 236.386 301.18 226.133C298.221 214.916 282.543 209.19 279.656 198.248C276.769 187.307 289.252 177.021 286.166 165.323C283.07 153.59 274.257 148.776 271.097 136.803C268.283 126.137 270.172 118.094 274.597 108.646C273.343 109.75 272.366 110.928 271.443 112.312C266.186 120.14 264.244 130.772 266.705 140.096C270.063 152.827 277.737 156.948 280.361 166.891C282.985 176.835 270.571 188.501 273.558 199.821C276.545 211.14 291.643 217.461 294.176 227.061C296.445 235.662 288.666 249.97 291.048 260.529C288.546 259.975 286.07 259.377 283.602 258.666C281.913 248.918 290.124 238.618 287.591 229.019C286.665 225.509 284.242 223.021 282.249 221.044C289.941 233.183 276.417 245.105 278.021 256.9C274.666 255.761 271.413 254.448 268.201 253.014C268.877 250.554 270.054 247.483 271.805 245.476C270.499 244.569 269.209 243.585 267.953 242.591C265.841 244.767 264.359 248.213 263.538 250.822C260.698 249.4 257.942 247.882 255.263 246.234C256.579 243.274 258.135 238.852 261.578 236.839C260.337 235.621 259.121 234.359 257.965 233.045C253.964 235.315 252.086 240.19 250.52 243.179C247.969 241.46 245.459 239.62 243.035 237.684C245.74 234.688 247.033 228.569 252.861 226.811C253.669 227.922 254.503 228.99 255.38 230.084C256.372 231.331 257.471 231.593 259.26 231.121C264.73 229.678 272.327 223.883 277.104 215.63C270.795 209.014 268.487 205.428 267.416 201.368C264.72 191.149 277.002 178.708 274.379 168.764C271.755 158.821 265.235 154.469 262.393 143.7C259.833 133.997 262.022 124.44 265.837 115.889C264.662 117.156 263.678 118.446 262.801 120.002C258.236 127.942 256.566 138.208 258.808 146.707C261.822 158.13 267.331 161.718 269.565 170.182C271.625 177.992 257.947 193.23 262.644 203.363C258.253 210.152 251.99 214.307 245.97 215.895C247.076 217.996 248.267 220 249.518 221.951C242.797 224.093 241.236 230.724 238.157 233.561C235.704 231.374 233.292 229.067 231.034 226.645C236.89 224.437 236.662 216.18 245.279 214.532C244.287 212.586 243.364 210.621 242.535 208.595C232.661 210.501 232.62 219.27 226.312 221.303C224.174 218.776 222.155 216.144 220.255 213.406C229.239 211.477 229.988 202.042 239.373 199.677C238.65 197.218 237.995 194.594 237.533 192.287C226.53 194.932 225.671 205.206 215.966 206.773C214.316 204.006 212.76 201.178 211.333 198.279C223.661 196.609 225.344 185.419 236.112 182.578C235.831 179.561 235.706 176.576 235.771 173.615C222.588 176.504 221.033 189.022 207.751 190.282C206.708 187.723 205.768 185.137 204.922 182.49C220.151 180.239 222.485 166.632 236.326 164.562C236.746 160.992 237.408 157.505 238.27 154.076C220.632 155.565 218.609 171.187 202.315 173.168C188.015 112.133 224.838 50.4534 285.832 34.3601C346.826 18.2669 409.286 53.7509 426.959 113.896C411.809 120.212 402.376 107.612 386.266 115.027C388.707 117.585 391.003 120.291 393.129 123.19C406.19 118.161 414.933 128.845 429.29 123.291C429.861 126.011 430.319 128.724 430.674 131.464L430.812 131.427ZM230.402 128.44C226.997 120.837 220.793 114.893 213.509 112.252C212.495 111.894 211.746 112.68 212.112 113.651C217.858 130.131 211.869 147.315 203.18 163.334C216.623 163.799 223.022 144.961 240.628 146.278C244.163 136.108 249.546 126.665 256.498 118.427C247.352 117.233 237.506 120.641 230.427 128.397L230.402 128.44ZM284.221 114.719C284.203 115.349 284.544 115.664 285.116 115.182C286.756 113.866 288.814 112.881 291.119 112.273C295.385 111.147 299.552 111.741 302.462 113.844C304.313 116.815 305.616 121.476 305.223 124.45C303.369 124.534 302.387 123.321 300.667 123.775C298.947 124.229 297.957 125.778 295.033 126.55C292.143 127.312 291.436 126.027 289.51 126.535C287.273 127.125 287.469 129.539 288.159 132.154C291.227 143.783 306.147 156.96 317.5 153.964C328.853 150.969 335.33 132.147 332.262 120.518C331.572 117.903 330.431 115.811 328.01 116.119C327.058 117.253 326.192 118.292 323.508 119C320.619 119.762 319.475 118.776 317.79 119.221C315.726 119.765 317.076 124.046 314.706 124.966C312.054 121.47 310.625 116.474 310.812 111.603C312.297 108.304 315.673 105.758 319.904 104.641C322.209 104.033 324.485 103.874 326.561 104.21C327.33 104.338 327.471 103.896 327.145 103.356C322.825 96.3262 312.534 92.7482 302.111 95.4985C291.687 98.2488 284.51 106.472 284.212 114.684L284.221 114.719ZM316.59 112.582C316.529 113.187 316.747 114.012 317.176 114.525C321.309 111.778 325.281 110.656 327.78 112.316C328.566 111.114 328.684 110.164 328.429 109.2C328.03 107.686 326.209 107.063 323.113 107.879C320.602 108.542 317.878 110.071 316.565 112.625L316.59 112.582ZM299.548 119.397C299.128 116.968 294.172 115.479 289.907 116.604C286.81 117.421 285.535 118.862 285.934 120.376C286.188 121.339 286.759 122.108 288.036 122.765C289.623 119.991 294.294 118.869 299.539 119.362L299.548 119.397ZM330.511 78.1791C331.11 70.5502 332.643 63.6686 335.038 56.7069C324.87 60.5672 317.115 66.7354 312.441 74.9609L303.959 63.1773L312.475 50.4052L297.306 53.3033L287.706 41.0422L285.403 56.4439L270.78 61.4063L284.488 68.3148L282.924 82.7488C274.801 77.8999 265.011 76.361 254.263 78.0193C259.78 82.8934 264.483 88.1664 268.794 94.463C261.771 91.2742 253.871 90.3409 245.46 91.9344C252.093 96.9926 258.242 102.583 263.4 109.024C263.996 109.75 264.86 109.817 265.568 109.152C275.372 100.566 287.231 94.0515 300.682 90.5024C314.133 86.9534 327.663 86.7694 340.426 89.4004C341.395 89.5864 342.079 89.1115 342.249 88.2203C343.567 80.1073 346.148 72.1764 349.422 64.5042C341.354 67.2584 334.943 71.9678 330.408 78.2064L330.511 78.1791ZM421.596 105.705C406.135 96.0579 392.438 84.0311 389.315 66.8958C389.121 65.8799 388.081 65.5654 387.41 66.3681C382.377 72.2593 379.947 80.4816 380.703 88.7835C370.684 85.5386 360.465 87.3886 353.107 92.9733C363.218 96.709 372.559 102.267 380.617 109.378C395.306 99.5039 410.132 112.742 421.605 105.74L421.596 105.705Z" fill="#007049"/>
</g>
<path d="M78.3272 75.7214L82.4831 71.0447L75.7819 65.0949C75.19 64.5699 75.1196 63.6766 75.6225 63.1142L94.5631 41.7839C95.064 41.2143 95.9605 41.1814 96.5525 41.7064L103.254 47.6562L107.41 42.9795L100.708 37.0297C97.4235 34.1085 92.4712 34.2959 89.6785 37.4432L70.738 58.7735C67.9453 61.9209 68.3502 66.8554 71.6351 69.7766L78.3272 75.7214Z" fill="#B9CCD5"/>
<path d="M48.4959 109.313L134.799 12.1326C135.729 11.0912 137.321 10.9924 138.362 11.923L146.735 19.3555C147.776 20.2861 147.875 21.8775 146.945 22.9189L60.6421 120.099C59.7114 121.14 58.12 121.239 57.0786 120.309L48.7055 112.876C47.6662 111.953 47.5674 110.361 48.4959 109.313Z" fill="#D7E9E2"/>
<path d="M48.4959 109.313L134.799 12.1326C135.729 11.0912 137.321 10.9924 138.362 11.923L146.735 19.3555C147.776 20.2861 147.875 21.8775 146.945 22.9189L60.6421 120.099C59.7114 121.14 58.12 121.239 57.0786 120.309L48.7055 112.876C47.6662 111.953 47.5674 110.361 48.4959 109.313Z" fill="#B9CCD5"/>
<path d="M150.495 284.779L154.192 286.306L150.495 284.779C148.009 290.796 152.969 297.247 159.422 296.392L230.848 286.922C237.302 286.066 240.409 278.545 236.441 273.384L192.527 216.262C188.559 211.101 180.492 212.171 178.006 218.188L150.495 284.779Z" fill="#D3705A" stroke="#C23B1D" stroke-width="8"/>
<path d="M191.684 237.124L194.611 264.714L187.874 265.607L183.492 238.21L191.684 237.124ZM192.87 277.431C191.655 277.592 190.552 277.283 189.562 276.504C188.57 275.712 187.997 274.682 187.841 273.415C187.663 272.164 187.95 271.034 188.703 270.023C189.456 269.013 190.439 268.427 191.654 268.266C192.82 268.112 193.904 268.423 194.907 269.201C195.909 269.978 196.499 270.993 196.678 272.244C196.777 273.089 196.665 273.891 196.341 274.649C196.027 275.393 195.567 276.02 194.96 276.529C194.352 277.026 193.655 277.327 192.87 277.431Z" fill="white"/>
<path d="M311.613 271.311C311.613 271.311 317.104 263.833 315.217 259.575C313.326 255.317 310.137 268.723 310.137 268.723C310.137 268.723 311.792 252.868 308.367 252.597C304.942 252.322 308.367 268.723 308.367 268.723C308.367 268.723 307.096 264.899 305.856 264.662C304.616 264.426 304.969 267.905 307.185 271.311H311.613Z" fill="#48AA6F"/>
<path d="M267.251 252.667C267.251 252.667 263.711 247.847 264.928 245.102C266.147 242.357 268.202 250.999 268.202 250.999C268.202 250.999 267.136 240.779 269.344 240.604C271.552 240.426 269.344 250.999 269.344 250.999C269.344 250.999 270.163 248.534 270.962 248.381C271.761 248.229 271.534 250.472 270.105 252.667H267.251Z" fill="#48AA6F"/>
<path d="M227.596 29.4004C226.294 26.3043 223.004 25.0044 220.281 24.8423C215.408 24.5451 214.187 24.5999 209.149 25.3622C204.459 26.5324 203.232 26.8453 198.608 28.9366C196.124 30.0418 193.54 32.4783 193.459 35.8491C193.393 38.6489 195.079 39.6969 197.322 39.8956L211.393 37.2376L225.476 34.5772C227.489 33.5609 228.68 31.983 227.596 29.4004Z" fill="#EF9E51"/>
<path d="M209.147 25.3485C204.456 26.5187 203.23 26.8316 198.605 28.923C196.124 30.0412 193.54 32.4777 193.459 35.8485C193.393 38.6483 195.079 39.6963 197.322 39.895L211.392 37.237L209.147 25.3485Z" fill="#EF9E51"/>
<path d="M209.147 25.3477C214.185 24.5853 215.406 24.5306 220.279 24.8278C223.002 24.9899 226.292 26.2897 227.594 29.3858C228.677 31.9685 227.49 33.5594 225.474 34.5627L211.39 37.2231L209.147 25.3477Z" fill="#EF9E51"/>
<g opacity="0.6">
<path d="M200.249 27.6641L197.55 29.1346C197.55 29.1346 199.692 34.8186 201.104 34.2C202.516 33.5815 200.249 27.6641 200.249 27.6641Z" fill="#D77E3C"/>
<path d="M204.982 25.431L202.161 26.6134C202.161 26.6134 203.837 32.4801 205.305 32.0134C206.76 31.5492 204.982 25.431 204.982 25.431Z" fill="#D77E3C"/>
</g>
<path opacity="0.6" d="M218.198 24.2739L221.248 24.6585C221.248 24.6585 221.326 30.7324 219.786 30.6716C218.245 30.6108 218.198 24.2739 218.198 24.2739Z" fill="#C7692E"/>
<path opacity="0.6" d="M212.963 23.9246L216.021 23.9964C216.021 23.9964 216.6 30.0705 215.063 30.1714C213.54 30.2698 212.963 23.9246 212.963 23.9246Z" fill="#C7692E"/>
<path opacity="0.6" d="M210.56 23.9439L207.6 24.6789C207.6 24.6789 208.589 30.7026 210.099 30.4579C211.624 30.2239 210.56 23.9439 210.56 23.9439Z" fill="#C7692E"/>
</g>
<defs>
<clipPath id="clip0_4132_130860">
<rect width="412.5" height="297" fill="white" transform="translate(0.75)"/>
</clipPath>
</defs>
</svg>
