<svg width="42" height="42" viewBox="0 0 42 42" fill="none" xmlns="http://www.w3.org/2000/svg">
<rect x="0.5" y="0.5" width="41" height="41" rx="9.5" fill="white"/>
<rect x="0.5" y="0.5" width="41" height="41" rx="9.5" stroke="#3C405F"/>
<g clip-path="url(#clip0_6640_28013)">
<path d="M19.7338 9.97266C18.077 9.97266 16.746 11.3493 16.746 13.0137V13.3835H13.3876C12.9214 13.3835 12.5415 13.7634 12.5415 14.2297V15.0758H11.6953V16.7681H13.3876V29.4604C13.3876 30.8523 14.5342 31.9989 15.9261 31.9989H26.0799C27.4719 31.9989 28.6184 30.8523 28.6184 29.4604V16.7681H30.3107V15.0758H29.4645V14.2297C29.4645 13.7634 29.0846 13.3835 28.6184 13.3835H25.26V13.0129C25.26 11.3493 23.929 9.97266 22.2722 9.97266H19.7338ZM19.7338 11.7174H22.2722C22.9525 11.7174 23.5152 12.2725 23.5152 13.0129V13.3835H18.4899V13.0129C18.4899 12.2725 19.0526 11.7183 19.7329 11.7183L19.7338 11.7174ZM15.0799 16.7681H19.4165C19.5214 16.7791 19.6255 16.7943 19.7338 16.7943H22.2722C22.3805 16.7943 22.4838 16.7791 22.5895 16.7681H26.9261V29.4604C26.9261 29.9368 26.5563 30.3066 26.0799 30.3066H15.9261C15.4497 30.3066 15.0799 29.9368 15.0799 29.4604V16.7681ZM16.7722 18.4604V28.6143H18.4645V18.4604H16.7722ZM20.1569 18.4604V28.6143H21.8492V18.4604H20.1569ZM23.5415 18.4604V28.6143H25.2338V18.4604H23.5415Z" fill="#3C405F"/>
</g>
<defs>
<clipPath id="clip0_6640_28013">
<rect width="22" height="22" fill="white" transform="translate(10 10)"/>
</clipPath>
</defs>
</svg>
