<svg width="43" height="42" viewBox="0 0 43 42" fill="none" xmlns="http://www.w3.org/2000/svg">
<rect x="1.20996" y="0.5" width="41" height="41" rx="9.5" fill="white"/>
<rect x="1.20996" y="0.5" width="41" height="41" rx="9.5" stroke="#82BC3F"/>
<g clip-path="url(#clip0_6640_28034)">
<path d="M23.8256 15.0234L13.9217 24.928C13.8719 24.978 13.8359 25.0411 13.8188 25.1089L12.721 29.515C12.6882 29.6477 12.7272 29.7887 12.824 29.8855C12.8972 29.9587 12.997 29.9993 13.0991 29.9993C13.1303 29.9993 13.1623 29.9954 13.1935 29.9876L17.5996 28.8897C17.6682 28.8726 17.7306 28.8367 17.7805 28.7869L27.6852 18.883L23.8256 15.0234Z" fill="#82BC3F"/>
<path d="M30.1388 13.6724L29.0363 12.5699C28.2995 11.8331 27.0153 11.8338 26.2793 12.5699L24.9288 13.9204L28.7883 17.7798L30.1388 16.4294C30.5068 16.0615 30.7095 15.5718 30.7095 15.051C30.7095 14.5301 30.5068 14.0404 30.1388 13.6724Z" fill="#82BC3F"/>
</g>
<defs>
<clipPath id="clip0_6640_28034">
<rect width="18" height="18" fill="white" transform="translate(12.71 12)"/>
</clipPath>
</defs>
</svg>
