<svg width="40" height="40" viewBox="0 0 40 40" fill="none" xmlns="http://www.w3.org/2000/svg">
<rect width="40" height="40" rx="10" fill="white"/>
<path d="M31.9999 16.0625V19.8125C31.9999 20.3303 31.5802 20.75 31.0624 20.75H30.4458L30.0509 24.2651C29.9971 24.7441 29.5913 25.0978 29.1203 25.098C29.0854 25.098 29.0502 25.096 29.0145 25.092C28.5 25.0343 28.1297 24.5701 28.1876 24.0558L28.6761 19.7079C28.7294 19.2337 29.1304 18.875 29.6078 18.875H30.125V17H9.875V18.875H25.8594C26.3772 18.875 26.7969 19.2948 26.7969 19.8125C26.7969 20.3303 26.3772 20.75 25.8594 20.75H11.4581L12.3839 28.4732C12.4967 29.4149 13.2971 30.125 14.2456 30.125H25.8296C26.785 30.125 27.5861 29.4089 27.6928 28.4593C27.7505 27.9448 28.2145 27.5747 28.729 27.6324C29.2436 27.6902 29.6138 28.1542 29.5561 28.6688C29.3426 30.5677 27.7406 32 25.8296 32H14.2456C12.3486 32 10.7479 30.5796 10.5221 28.6962L9.56977 20.75H8.9375C8.41968 20.75 8 20.3303 8 19.8125V16.0625C8 15.5447 8.41968 15.125 8.9375 15.125H12.2627L17.2166 8.38248C17.5232 7.96537 18.1098 7.87546 18.5271 8.18217C18.9444 8.48868 19.0341 9.07536 18.7276 9.49265L14.5894 15.125H25.4452L21.3068 9.49265C21.0003 9.07536 21.0901 8.48868 21.5073 8.18217C21.9246 7.87546 22.5113 7.96519 22.818 8.38248L27.7718 15.125H31.0624C31.5802 15.125 31.9999 15.5448 31.9999 16.0625ZM19.0625 23.5625V27.3125C19.0625 27.8303 19.4822 28.25 20 28.25C20.5177 28.25 20.9375 27.8303 20.9375 27.3125V23.5625C20.9375 23.0447 20.5177 22.625 20 22.625C19.4822 22.625 19.0625 23.0447 19.0625 23.5625ZM22.8125 23.5625V27.3125C22.8125 27.8303 23.2322 28.25 23.75 28.25C24.2677 28.25 24.6875 27.8303 24.6875 27.3125V23.5625C24.6875 23.0447 24.2677 22.625 23.75 22.625C23.2322 22.625 22.8125 23.0447 22.8125 23.5625ZM15.3125 23.5625V27.3125C15.3125 27.8303 15.7322 28.25 16.25 28.25C16.7677 28.25 17.1875 27.8303 17.1875 27.3125V23.5625C17.1875 23.0447 16.7677 22.625 16.25 22.625C15.7322 22.625 15.3125 23.0447 15.3125 23.5625Z" fill="#007042"/>
<rect x="23.3594" y="11.8408" width="9.6" height="9.6" rx="4.8" fill="#007042" stroke="white" stroke-width="2"/>
<path d="M28.5567 14.1774V18.3304L29.8694 17.0178C30.2464 16.6407 30.812 17.2063 30.4349 17.5833L29.2376 18.7788L28.4383 19.5768C28.2827 19.7315 28.0315 19.7315 27.8759 19.5768L25.8801 17.5833C25.8021 17.5075 25.7584 17.4031 25.7593 17.2943C25.7593 16.9353 26.1967 16.7591 26.4456 17.0178L27.7583 18.3335V14.1568C27.7857 13.6038 28.5843 13.6451 28.5567 14.1774Z" fill="white"/>
</svg>
